%TF.GenerationSoftware,KiCad,Pcbnew,7.0.1*%
%TF.CreationDate,2023-03-29T16:16:29+02:00*%
%TF.ProjectId,remote,72656d6f-7465-42e6-9b69-6361645f7063,1.0*%
%TF.SameCoordinates,Original*%
%TF.FileFunction,Copper,L1,Top*%
%TF.FilePolarity,Positive*%
%FSLAX46Y46*%
G04 Gerber Fmt 4.6, Leading zero omitted, Abs format (unit mm)*
G04 Created by KiCad (PCBNEW 7.0.1) date 2023-03-29 16:16:29*
%MOMM*%
%LPD*%
G01*
G04 APERTURE LIST*
G04 Aperture macros list*
%AMRoundRect*
0 Rectangle with rounded corners*
0 $1 Rounding radius*
0 $2 $3 $4 $5 $6 $7 $8 $9 X,Y pos of 4 corners*
0 Add a 4 corners polygon primitive as box body*
4,1,4,$2,$3,$4,$5,$6,$7,$8,$9,$2,$3,0*
0 Add four circle primitives for the rounded corners*
1,1,$1+$1,$2,$3*
1,1,$1+$1,$4,$5*
1,1,$1+$1,$6,$7*
1,1,$1+$1,$8,$9*
0 Add four rect primitives between the rounded corners*
20,1,$1+$1,$2,$3,$4,$5,0*
20,1,$1+$1,$4,$5,$6,$7,0*
20,1,$1+$1,$6,$7,$8,$9,0*
20,1,$1+$1,$8,$9,$2,$3,0*%
G04 Aperture macros list end*
%TA.AperFunction,ComponentPad*%
%ADD10C,5.600000*%
%TD*%
%TA.AperFunction,SMDPad,CuDef*%
%ADD11RoundRect,0.200000X0.200000X0.275000X-0.200000X0.275000X-0.200000X-0.275000X0.200000X-0.275000X0*%
%TD*%
%TA.AperFunction,ComponentPad*%
%ADD12R,1.500000X3.000000*%
%TD*%
%TA.AperFunction,ComponentPad*%
%ADD13O,1.500000X3.000000*%
%TD*%
%TA.AperFunction,ComponentPad*%
%ADD14O,3.000000X1.500000*%
%TD*%
%TA.AperFunction,ComponentPad*%
%ADD15R,2.100000X2.100000*%
%TD*%
%TA.AperFunction,ComponentPad*%
%ADD16C,2.100000*%
%TD*%
%TA.AperFunction,ViaPad*%
%ADD17C,0.800000*%
%TD*%
%TA.AperFunction,Conductor*%
%ADD18C,0.250000*%
%TD*%
G04 APERTURE END LIST*
D10*
%TO.P,H1,1,1*%
%TO.N,GND*%
X130675000Y-54400000D03*
%TD*%
D11*
%TO.P,R1,1*%
%TO.N,Brake_BTN*%
X130825000Y-65300000D03*
%TO.P,R1,2*%
%TO.N,GND*%
X129175000Y-65300000D03*
%TD*%
%TO.P,R2,1*%
%TO.N,RearLight_BTN*%
X130825000Y-80300000D03*
%TO.P,R2,2*%
%TO.N,GND*%
X129175000Y-80300000D03*
%TD*%
%TO.P,R3,1*%
%TO.N,IND_BTN*%
X130825000Y-95500000D03*
%TO.P,R3,2*%
%TO.N,GND*%
X129175000Y-95500000D03*
%TD*%
D12*
%TO.P,J1,1,GND*%
%TO.N,GND*%
X138050000Y-68900000D03*
D13*
%TO.P,J1,2,VCC*%
%TO.N,+5V*%
X145300000Y-68900000D03*
D14*
%TO.P,J1,3,-*%
%TO.N,Brake_BTN*%
X141675000Y-65275000D03*
%TO.P,J1,4,+*%
%TO.N,+5V*%
X141675000Y-72525000D03*
%TD*%
D15*
%TO.P,J4,1,Pin_1*%
%TO.N,+5V*%
X146700000Y-53500000D03*
D16*
%TO.P,J4,2,Pin_2*%
%TO.N,Brake_BTN*%
X144160000Y-53500000D03*
%TO.P,J4,3,Pin_3*%
%TO.N,RearLight_BTN*%
X141620000Y-53500000D03*
%TO.P,J4,4,Pin_4*%
%TO.N,IND_BTN*%
X139080000Y-53500000D03*
%TO.P,J4,5,Pin_5*%
%TO.N,GND*%
X136540000Y-53500000D03*
%TD*%
D12*
%TO.P,J2,1,GND*%
%TO.N,GND*%
X138050000Y-84000000D03*
D13*
%TO.P,J2,2,VCC*%
%TO.N,+5V*%
X145300000Y-84000000D03*
D14*
%TO.P,J2,3,-*%
%TO.N,RearLight_BTN*%
X141675000Y-80375000D03*
%TO.P,J2,4,+*%
%TO.N,+5V*%
X141675000Y-87625000D03*
%TD*%
D10*
%TO.P,H3,1,1*%
%TO.N,GND*%
X130675000Y-102400000D03*
%TD*%
%TO.P,H4,1,1*%
%TO.N,GND*%
X152675000Y-102400000D03*
%TD*%
%TO.P,H2,1,1*%
%TO.N,GND*%
X152800000Y-54400000D03*
%TD*%
D12*
%TO.P,J3,1,GND*%
%TO.N,GND*%
X138050000Y-99100000D03*
D13*
%TO.P,J3,2,VCC*%
%TO.N,+5V*%
X145300000Y-99100000D03*
D14*
%TO.P,J3,3,-*%
%TO.N,IND_BTN*%
X141675000Y-95475000D03*
%TO.P,J3,4,+*%
%TO.N,+5V*%
X141675000Y-102725000D03*
%TD*%
D17*
%TO.N,GND*%
X127800000Y-65300000D03*
X127800000Y-80300000D03*
X127900000Y-95500000D03*
%TO.N,RearLight_BTN*%
X140600000Y-56100000D03*
%TO.N,IND_BTN*%
X139000000Y-56100000D03*
%TD*%
D18*
%TO.N,GND*%
X129175000Y-65300000D02*
X127800000Y-65300000D01*
X129175000Y-95500000D02*
X127900000Y-95500000D01*
X129175000Y-80300000D02*
X127800000Y-80300000D01*
%TO.N,+5V*%
X142400000Y-99100000D02*
X145300000Y-99100000D01*
X141675000Y-72525000D02*
X141675000Y-70025000D01*
X141675000Y-87625000D02*
X141675000Y-85225000D01*
X141675000Y-102725000D02*
X141675000Y-99825000D01*
X142800000Y-68900000D02*
X145300000Y-68900000D01*
X141675000Y-99825000D02*
X142400000Y-99100000D01*
X141675000Y-85225000D02*
X142900000Y-84000000D01*
X142900000Y-84000000D02*
X145300000Y-84000000D01*
X141675000Y-70025000D02*
X142800000Y-68900000D01*
%TO.N,Brake_BTN*%
X130825000Y-65300000D02*
X130850000Y-65275000D01*
X141675000Y-56225000D02*
X141675000Y-65275000D01*
X144160000Y-53740000D02*
X141675000Y-56225000D01*
X144160000Y-53500000D02*
X144160000Y-53740000D01*
X130850000Y-65275000D02*
X141675000Y-65275000D01*
%TO.N,RearLight_BTN*%
X130900000Y-80375000D02*
X141675000Y-80375000D01*
X141620000Y-53500000D02*
X141620000Y-55080000D01*
X130825000Y-80300000D02*
X130900000Y-80375000D01*
X141620000Y-55080000D02*
X140600000Y-56100000D01*
%TO.N,IND_BTN*%
X130825000Y-95500000D02*
X130850000Y-95475000D01*
X130850000Y-95475000D02*
X141675000Y-95475000D01*
X139080000Y-53500000D02*
X139080000Y-56020000D01*
X139080000Y-56020000D02*
X139000000Y-56100000D01*
%TD*%
%TA.AperFunction,Conductor*%
%TO.N,+5V*%
G36*
X148638166Y-51316574D02*
G01*
X148683543Y-51361865D01*
X148700234Y-51423766D01*
X148799765Y-104075766D01*
X148783230Y-104137865D01*
X148737833Y-104183348D01*
X148675765Y-104200000D01*
X143824235Y-104200000D01*
X143762167Y-104183348D01*
X143716770Y-104137865D01*
X143700235Y-104075766D01*
X143708696Y-99600000D01*
X144050000Y-99600000D01*
X144050000Y-99906131D01*
X144065117Y-100074100D01*
X144124977Y-100290995D01*
X144222600Y-100493712D01*
X144354855Y-100675745D01*
X144517491Y-100831241D01*
X144705266Y-100955190D01*
X144800000Y-100995681D01*
X144800000Y-99600000D01*
X145800000Y-99600000D01*
X145800000Y-101000431D01*
X145991407Y-100897430D01*
X146167318Y-100757146D01*
X146315359Y-100587700D01*
X146430762Y-100394548D01*
X146509825Y-100183888D01*
X146550000Y-99962503D01*
X146550000Y-99600000D01*
X145800000Y-99600000D01*
X144800000Y-99600000D01*
X144050000Y-99600000D01*
X143708696Y-99600000D01*
X143710586Y-98600000D01*
X144050000Y-98600000D01*
X144800000Y-98600000D01*
X144800000Y-97204319D01*
X145800000Y-97204319D01*
X145800000Y-98600000D01*
X146550000Y-98600000D01*
X146550000Y-98293869D01*
X146534882Y-98125899D01*
X146475022Y-97909004D01*
X146377399Y-97706287D01*
X146245144Y-97524254D01*
X146082508Y-97368758D01*
X145894733Y-97244809D01*
X145800000Y-97204319D01*
X144800000Y-97204319D01*
X144800000Y-97199569D01*
X144608592Y-97302569D01*
X144432681Y-97442853D01*
X144284640Y-97612299D01*
X144169237Y-97805451D01*
X144090174Y-98016111D01*
X144050000Y-98237497D01*
X144050000Y-98600000D01*
X143710586Y-98600000D01*
X143734787Y-85797430D01*
X143737240Y-84500000D01*
X144050000Y-84500000D01*
X144050000Y-84806131D01*
X144065117Y-84974100D01*
X144124977Y-85190995D01*
X144222600Y-85393712D01*
X144354855Y-85575745D01*
X144517491Y-85731241D01*
X144705266Y-85855190D01*
X144800000Y-85895681D01*
X144800000Y-84500000D01*
X145800000Y-84500000D01*
X145800000Y-85900431D01*
X145991407Y-85797430D01*
X146167318Y-85657146D01*
X146315359Y-85487700D01*
X146430762Y-85294548D01*
X146509825Y-85083888D01*
X146550000Y-84862503D01*
X146550000Y-84500000D01*
X145800000Y-84500000D01*
X144800000Y-84500000D01*
X144050000Y-84500000D01*
X143737240Y-84500000D01*
X143739130Y-83500000D01*
X144050000Y-83500000D01*
X144800000Y-83500000D01*
X144800000Y-82104319D01*
X145800000Y-82104319D01*
X145800000Y-83500000D01*
X146550000Y-83500000D01*
X146550000Y-83193869D01*
X146534882Y-83025899D01*
X146475022Y-82809004D01*
X146377399Y-82606287D01*
X146245144Y-82424254D01*
X146082508Y-82268758D01*
X145894733Y-82144809D01*
X145800000Y-82104319D01*
X144800000Y-82104319D01*
X144800000Y-82099569D01*
X144608592Y-82202569D01*
X144432681Y-82342853D01*
X144284640Y-82512299D01*
X144169237Y-82705451D01*
X144090174Y-82916111D01*
X144050000Y-83137497D01*
X144050000Y-83500000D01*
X143739130Y-83500000D01*
X143765784Y-69400000D01*
X144050000Y-69400000D01*
X144050000Y-69706131D01*
X144065117Y-69874100D01*
X144124977Y-70090995D01*
X144222600Y-70293712D01*
X144354855Y-70475745D01*
X144517491Y-70631241D01*
X144705266Y-70755190D01*
X144800000Y-70795681D01*
X144800000Y-69400000D01*
X145800000Y-69400000D01*
X145800000Y-70800431D01*
X145991407Y-70697430D01*
X146167318Y-70557146D01*
X146315359Y-70387700D01*
X146430762Y-70194548D01*
X146509825Y-69983888D01*
X146550000Y-69762503D01*
X146550000Y-69400000D01*
X145800000Y-69400000D01*
X144800000Y-69400000D01*
X144050000Y-69400000D01*
X143765784Y-69400000D01*
X143767674Y-68400000D01*
X144050000Y-68400000D01*
X144800000Y-68400000D01*
X144800000Y-67004319D01*
X145800000Y-67004319D01*
X145800000Y-68400000D01*
X146550000Y-68400000D01*
X146550000Y-68093869D01*
X146534882Y-67925899D01*
X146475022Y-67709004D01*
X146377399Y-67506287D01*
X146245144Y-67324254D01*
X146082508Y-67168758D01*
X145894733Y-67044809D01*
X145800000Y-67004319D01*
X144800000Y-67004319D01*
X144800000Y-66999569D01*
X144608592Y-67102569D01*
X144432681Y-67242853D01*
X144284640Y-67412299D01*
X144169237Y-67605451D01*
X144090174Y-67816111D01*
X144050000Y-68037497D01*
X144050000Y-68400000D01*
X143767674Y-68400000D01*
X143792702Y-55160292D01*
X143811056Y-55095606D01*
X143860477Y-55050009D01*
X143926427Y-55036911D01*
X144160000Y-55055294D01*
X144403302Y-55036146D01*
X144640612Y-54979172D01*
X144640613Y-54979171D01*
X144640615Y-54979171D01*
X144866088Y-54885778D01*
X144947603Y-54835824D01*
X145051286Y-54772287D01*
X145108995Y-54754217D01*
X145168390Y-54765591D01*
X145215342Y-54803704D01*
X145292810Y-54907188D01*
X145407910Y-54993352D01*
X145542624Y-55043597D01*
X145602176Y-55050000D01*
X146200000Y-55050000D01*
X146200000Y-54000000D01*
X147200000Y-54000000D01*
X147200000Y-55050000D01*
X147797824Y-55050000D01*
X147857375Y-55043597D01*
X147992089Y-54993352D01*
X148107188Y-54907188D01*
X148193352Y-54792089D01*
X148243597Y-54657375D01*
X148250000Y-54597824D01*
X148250000Y-54000000D01*
X147200000Y-54000000D01*
X146200000Y-54000000D01*
X146200000Y-51950000D01*
X147200000Y-51950000D01*
X147200000Y-53000000D01*
X148250000Y-53000000D01*
X148250000Y-52402176D01*
X148243597Y-52342624D01*
X148193352Y-52207910D01*
X148107188Y-52092811D01*
X147992089Y-52006647D01*
X147857375Y-51956402D01*
X147797824Y-51950000D01*
X147200000Y-51950000D01*
X146200000Y-51950000D01*
X146200000Y-51424000D01*
X146216613Y-51362000D01*
X146262000Y-51316613D01*
X146324000Y-51300000D01*
X148576234Y-51300000D01*
X148638166Y-51316574D01*
G37*
%TD.AperFunction*%
%TD*%
M02*
