%TF.GenerationSoftware,KiCad,Pcbnew,7.0.1*%
%TF.CreationDate,2023-03-29T16:16:29+02:00*%
%TF.ProjectId,remote,72656d6f-7465-42e6-9b69-6361645f7063,1.0*%
%TF.SameCoordinates,Original*%
%TF.FileFunction,Copper,L2,Bot*%
%TF.FilePolarity,Positive*%
%FSLAX46Y46*%
G04 Gerber Fmt 4.6, Leading zero omitted, Abs format (unit mm)*
G04 Created by KiCad (PCBNEW 7.0.1) date 2023-03-29 16:16:29*
%MOMM*%
%LPD*%
G01*
G04 APERTURE LIST*
%TA.AperFunction,ComponentPad*%
%ADD10C,5.600000*%
%TD*%
%TA.AperFunction,ComponentPad*%
%ADD11R,1.500000X3.000000*%
%TD*%
%TA.AperFunction,ComponentPad*%
%ADD12O,1.500000X3.000000*%
%TD*%
%TA.AperFunction,ComponentPad*%
%ADD13O,3.000000X1.500000*%
%TD*%
%TA.AperFunction,ComponentPad*%
%ADD14R,2.100000X2.100000*%
%TD*%
%TA.AperFunction,ComponentPad*%
%ADD15C,2.100000*%
%TD*%
%TA.AperFunction,ViaPad*%
%ADD16C,0.800000*%
%TD*%
%TA.AperFunction,Conductor*%
%ADD17C,0.250000*%
%TD*%
G04 APERTURE END LIST*
D10*
%TO.P,H1,1,1*%
%TO.N,GND*%
X130675000Y-54400000D03*
%TD*%
D11*
%TO.P,J1,1,GND*%
%TO.N,GND*%
X138050000Y-68900000D03*
D12*
%TO.P,J1,2,VCC*%
%TO.N,+5V*%
X145300000Y-68900000D03*
D13*
%TO.P,J1,3,-*%
%TO.N,Brake_BTN*%
X141675000Y-65275000D03*
%TO.P,J1,4,+*%
%TO.N,+5V*%
X141675000Y-72525000D03*
%TD*%
D14*
%TO.P,J4,1,Pin_1*%
%TO.N,+5V*%
X146700000Y-53500000D03*
D15*
%TO.P,J4,2,Pin_2*%
%TO.N,Brake_BTN*%
X144160000Y-53500000D03*
%TO.P,J4,3,Pin_3*%
%TO.N,RearLight_BTN*%
X141620000Y-53500000D03*
%TO.P,J4,4,Pin_4*%
%TO.N,IND_BTN*%
X139080000Y-53500000D03*
%TO.P,J4,5,Pin_5*%
%TO.N,GND*%
X136540000Y-53500000D03*
%TD*%
D11*
%TO.P,J2,1,GND*%
%TO.N,GND*%
X138050000Y-84000000D03*
D12*
%TO.P,J2,2,VCC*%
%TO.N,+5V*%
X145300000Y-84000000D03*
D13*
%TO.P,J2,3,-*%
%TO.N,RearLight_BTN*%
X141675000Y-80375000D03*
%TO.P,J2,4,+*%
%TO.N,+5V*%
X141675000Y-87625000D03*
%TD*%
D10*
%TO.P,H3,1,1*%
%TO.N,GND*%
X130675000Y-102400000D03*
%TD*%
%TO.P,H4,1,1*%
%TO.N,GND*%
X152675000Y-102400000D03*
%TD*%
%TO.P,H2,1,1*%
%TO.N,GND*%
X152800000Y-54400000D03*
%TD*%
D11*
%TO.P,J3,1,GND*%
%TO.N,GND*%
X138050000Y-99100000D03*
D12*
%TO.P,J3,2,VCC*%
%TO.N,+5V*%
X145300000Y-99100000D03*
D13*
%TO.P,J3,3,-*%
%TO.N,IND_BTN*%
X141675000Y-95475000D03*
%TO.P,J3,4,+*%
%TO.N,+5V*%
X141675000Y-102725000D03*
%TD*%
D16*
%TO.N,GND*%
X127800000Y-65300000D03*
X127800000Y-80300000D03*
X127900000Y-95500000D03*
%TO.N,RearLight_BTN*%
X140600000Y-56100000D03*
%TO.N,IND_BTN*%
X139000000Y-56100000D03*
%TD*%
D17*
%TO.N,RearLight_BTN*%
X140600000Y-56100000D02*
X139875000Y-55375000D01*
X138275000Y-55799695D02*
X138275000Y-66225000D01*
X139875000Y-55375000D02*
X138699695Y-55375000D01*
X138699695Y-55375000D02*
X138275000Y-55799695D01*
X139850000Y-67800000D02*
X139850000Y-78550000D01*
X138275000Y-66225000D02*
X139850000Y-67800000D01*
X139850000Y-78550000D02*
X141675000Y-80375000D01*
%TO.N,IND_BTN*%
X143500000Y-93650000D02*
X141675000Y-95475000D01*
X139000000Y-56100000D02*
X143500000Y-60600000D01*
X143500000Y-60600000D02*
X143500000Y-93650000D01*
%TD*%
%TA.AperFunction,Conductor*%
%TO.N,GND*%
G36*
X156612500Y-49417113D02*
G01*
X156657887Y-49462500D01*
X156674500Y-49524500D01*
X156674500Y-107275500D01*
X156657887Y-107337500D01*
X156612500Y-107382887D01*
X156550500Y-107399500D01*
X126799500Y-107399500D01*
X126737500Y-107382887D01*
X126692113Y-107337500D01*
X126675500Y-107275500D01*
X126675500Y-105060394D01*
X128721712Y-105060394D01*
X128820363Y-105135386D01*
X129126984Y-105319873D01*
X129451746Y-105470124D01*
X129790859Y-105584385D01*
X130140335Y-105661310D01*
X130496078Y-105700000D01*
X130853922Y-105700000D01*
X131209664Y-105661310D01*
X131559140Y-105584385D01*
X131898253Y-105470124D01*
X132223015Y-105319873D01*
X132529637Y-105135385D01*
X132628285Y-105060394D01*
X150721712Y-105060394D01*
X150820363Y-105135386D01*
X151126984Y-105319873D01*
X151451746Y-105470124D01*
X151790859Y-105584385D01*
X152140335Y-105661310D01*
X152496078Y-105700000D01*
X152853922Y-105700000D01*
X153209664Y-105661310D01*
X153559140Y-105584385D01*
X153898253Y-105470124D01*
X154223015Y-105319873D01*
X154529637Y-105135385D01*
X154628286Y-105060393D01*
X152675000Y-103107107D01*
X150721712Y-105060393D01*
X150721712Y-105060394D01*
X132628285Y-105060394D01*
X132628286Y-105060393D01*
X130675000Y-103107107D01*
X128721712Y-105060393D01*
X128721712Y-105060394D01*
X126675500Y-105060394D01*
X126675500Y-102400000D01*
X127370152Y-102400000D01*
X127389525Y-102757310D01*
X127447419Y-103110451D01*
X127543149Y-103455241D01*
X127675601Y-103787670D01*
X127843218Y-104103829D01*
X128013265Y-104354627D01*
X129967893Y-102400001D01*
X129967893Y-102400000D01*
X131382107Y-102400000D01*
X133336733Y-104354627D01*
X133506783Y-104103824D01*
X133674398Y-103787670D01*
X133806850Y-103455241D01*
X133902580Y-103110451D01*
X133956536Y-102781328D01*
X139670709Y-102781328D01*
X139700925Y-103004388D01*
X139736211Y-103112988D01*
X139770483Y-103218464D01*
X139877148Y-103416681D01*
X140017492Y-103592666D01*
X140187004Y-103740765D01*
X140187006Y-103740766D01*
X140380237Y-103856216D01*
X140498214Y-103900493D01*
X140590976Y-103935307D01*
X140812453Y-103975500D01*
X142481153Y-103975500D01*
X142481155Y-103975500D01*
X142649188Y-103960377D01*
X142866170Y-103900493D01*
X143068973Y-103802829D01*
X143251078Y-103670522D01*
X143406632Y-103507825D01*
X143530635Y-103319968D01*
X143619103Y-103112988D01*
X143669191Y-102893537D01*
X143679290Y-102668670D01*
X143649075Y-102445613D01*
X143634254Y-102400000D01*
X149370152Y-102400000D01*
X149389525Y-102757310D01*
X149447419Y-103110451D01*
X149543149Y-103455241D01*
X149675601Y-103787670D01*
X149843218Y-104103829D01*
X150013265Y-104354627D01*
X151967893Y-102400001D01*
X153382107Y-102400001D01*
X155336733Y-104354627D01*
X155506783Y-104103824D01*
X155674398Y-103787670D01*
X155806850Y-103455241D01*
X155902580Y-103110451D01*
X155960474Y-102757310D01*
X155979847Y-102400000D01*
X155960474Y-102042689D01*
X155902580Y-101689548D01*
X155806850Y-101344758D01*
X155674398Y-101012329D01*
X155506781Y-100696170D01*
X155336734Y-100445371D01*
X155336733Y-100445371D01*
X153382107Y-102400000D01*
X153382107Y-102400001D01*
X151967893Y-102400001D01*
X151967893Y-102399999D01*
X150013265Y-100445371D01*
X149843215Y-100696178D01*
X149675601Y-101012329D01*
X149543149Y-101344758D01*
X149447419Y-101689548D01*
X149389525Y-102042689D01*
X149370152Y-102400000D01*
X143634254Y-102400000D01*
X143579517Y-102231536D01*
X143472852Y-102033319D01*
X143332508Y-101857334D01*
X143162996Y-101709235D01*
X143135644Y-101692893D01*
X142969762Y-101593783D01*
X142759025Y-101514693D01*
X142537547Y-101474500D01*
X140868845Y-101474500D01*
X140801631Y-101480549D01*
X140700809Y-101489623D01*
X140483828Y-101549507D01*
X140281027Y-101647170D01*
X140098925Y-101779475D01*
X139943365Y-101942178D01*
X139819365Y-102130031D01*
X139730896Y-102337012D01*
X139680809Y-102556462D01*
X139670709Y-102781328D01*
X133956536Y-102781328D01*
X133960474Y-102757310D01*
X133979847Y-102400000D01*
X133960474Y-102042689D01*
X133902580Y-101689548D01*
X133806850Y-101344758D01*
X133674398Y-101012329D01*
X133506781Y-100696170D01*
X133336734Y-100445371D01*
X133336733Y-100445371D01*
X131382107Y-102400000D01*
X129967893Y-102400000D01*
X128013265Y-100445371D01*
X127843215Y-100696178D01*
X127675601Y-101012329D01*
X127543149Y-101344758D01*
X127447419Y-101689548D01*
X127389525Y-102042689D01*
X127370152Y-102400000D01*
X126675500Y-102400000D01*
X126675500Y-99739605D01*
X128721711Y-99739605D01*
X130675000Y-101692893D01*
X130675001Y-101692893D01*
X132628287Y-99739605D01*
X132529636Y-99664613D01*
X132422248Y-99600000D01*
X136800000Y-99600000D01*
X136800000Y-100647824D01*
X136806402Y-100707375D01*
X136856647Y-100842089D01*
X136942811Y-100957188D01*
X137057910Y-101043352D01*
X137192624Y-101093597D01*
X137252176Y-101100000D01*
X137550000Y-101100000D01*
X137550000Y-99600000D01*
X138550000Y-99600000D01*
X138550000Y-101100000D01*
X138847824Y-101100000D01*
X138907375Y-101093597D01*
X139042089Y-101043352D01*
X139157188Y-100957188D01*
X139243352Y-100842089D01*
X139293597Y-100707375D01*
X139300000Y-100647824D01*
X139300000Y-99906153D01*
X144049500Y-99906153D01*
X144064623Y-100074190D01*
X144124507Y-100291171D01*
X144222170Y-100493972D01*
X144290483Y-100587996D01*
X144354478Y-100676078D01*
X144517175Y-100831632D01*
X144705032Y-100955635D01*
X144912012Y-101044103D01*
X145131463Y-101094191D01*
X145336998Y-101103421D01*
X145356328Y-101104290D01*
X145356328Y-101104289D01*
X145356330Y-101104290D01*
X145579387Y-101074075D01*
X145793464Y-101004517D01*
X145991681Y-100897852D01*
X146167666Y-100757508D01*
X146315765Y-100587996D01*
X146431215Y-100394764D01*
X146510307Y-100184024D01*
X146550500Y-99962547D01*
X146550500Y-99739605D01*
X150721711Y-99739605D01*
X152675000Y-101692893D01*
X152675001Y-101692893D01*
X154628287Y-99739605D01*
X154529636Y-99664613D01*
X154223015Y-99480126D01*
X153898253Y-99329875D01*
X153559140Y-99215614D01*
X153209664Y-99138689D01*
X152853922Y-99100000D01*
X152496078Y-99100000D01*
X152140335Y-99138689D01*
X151790859Y-99215614D01*
X151451746Y-99329875D01*
X151126987Y-99480125D01*
X150820361Y-99664614D01*
X150721712Y-99739605D01*
X150721711Y-99739605D01*
X146550500Y-99739605D01*
X146550500Y-98293845D01*
X146535377Y-98125812D01*
X146475493Y-97908830D01*
X146377829Y-97706027D01*
X146245522Y-97523922D01*
X146082825Y-97368368D01*
X146082822Y-97368366D01*
X146082821Y-97368365D01*
X145894968Y-97244365D01*
X145687987Y-97155896D01*
X145468537Y-97105809D01*
X145243671Y-97095709D01*
X145020611Y-97125925D01*
X144806537Y-97195482D01*
X144718586Y-97242811D01*
X144608319Y-97302148D01*
X144608317Y-97302149D01*
X144608318Y-97302149D01*
X144432335Y-97442490D01*
X144284233Y-97612006D01*
X144168783Y-97805237D01*
X144089693Y-98015974D01*
X144049500Y-98237453D01*
X144049500Y-99906153D01*
X139300000Y-99906153D01*
X139300000Y-99600000D01*
X138550000Y-99600000D01*
X137550000Y-99600000D01*
X136800000Y-99600000D01*
X132422248Y-99600000D01*
X132223015Y-99480126D01*
X131898253Y-99329875D01*
X131559140Y-99215614D01*
X131209664Y-99138689D01*
X130853922Y-99100000D01*
X130496078Y-99100000D01*
X130140335Y-99138689D01*
X129790859Y-99215614D01*
X129451746Y-99329875D01*
X129126987Y-99480125D01*
X128820361Y-99664614D01*
X128721712Y-99739605D01*
X128721711Y-99739605D01*
X126675500Y-99739605D01*
X126675500Y-98600000D01*
X136800000Y-98600000D01*
X137550000Y-98600000D01*
X137550000Y-97100000D01*
X138550000Y-97100000D01*
X138550000Y-98600000D01*
X139300000Y-98600000D01*
X139300000Y-97552176D01*
X139293597Y-97492624D01*
X139243352Y-97357910D01*
X139157188Y-97242811D01*
X139042089Y-97156647D01*
X138907375Y-97106402D01*
X138847824Y-97100000D01*
X138550000Y-97100000D01*
X137550000Y-97100000D01*
X137252176Y-97100000D01*
X137192624Y-97106402D01*
X137057910Y-97156647D01*
X136942811Y-97242811D01*
X136856647Y-97357910D01*
X136806402Y-97492624D01*
X136800000Y-97552176D01*
X136800000Y-98600000D01*
X126675500Y-98600000D01*
X126675500Y-84500000D01*
X136800000Y-84500000D01*
X136800000Y-85547824D01*
X136806402Y-85607375D01*
X136856647Y-85742089D01*
X136942811Y-85857188D01*
X137057910Y-85943352D01*
X137192624Y-85993597D01*
X137252176Y-86000000D01*
X137550000Y-86000000D01*
X137550000Y-84500000D01*
X138550000Y-84500000D01*
X138550000Y-86000000D01*
X138847824Y-86000000D01*
X138907375Y-85993597D01*
X139042089Y-85943352D01*
X139157188Y-85857188D01*
X139243352Y-85742089D01*
X139293597Y-85607375D01*
X139300000Y-85547824D01*
X139300000Y-84500000D01*
X138550000Y-84500000D01*
X137550000Y-84500000D01*
X136800000Y-84500000D01*
X126675500Y-84500000D01*
X126675500Y-83500000D01*
X136800000Y-83500000D01*
X137550000Y-83500000D01*
X137550000Y-82000000D01*
X138550000Y-82000000D01*
X138550000Y-83500000D01*
X139300000Y-83500000D01*
X139300000Y-82452176D01*
X139293597Y-82392624D01*
X139243352Y-82257910D01*
X139157188Y-82142811D01*
X139042089Y-82056647D01*
X138907375Y-82006402D01*
X138847824Y-82000000D01*
X138550000Y-82000000D01*
X137550000Y-82000000D01*
X137252176Y-82000000D01*
X137192624Y-82006402D01*
X137057910Y-82056647D01*
X136942811Y-82142811D01*
X136856647Y-82257910D01*
X136806402Y-82392624D01*
X136800000Y-82452176D01*
X136800000Y-83500000D01*
X126675500Y-83500000D01*
X126675500Y-69400000D01*
X136800000Y-69400000D01*
X136800000Y-70447824D01*
X136806402Y-70507375D01*
X136856647Y-70642089D01*
X136942811Y-70757188D01*
X137057910Y-70843352D01*
X137192624Y-70893597D01*
X137252176Y-70900000D01*
X137550000Y-70900000D01*
X137550000Y-69400000D01*
X136800000Y-69400000D01*
X126675500Y-69400000D01*
X126675500Y-68400000D01*
X136800000Y-68400000D01*
X138426000Y-68400000D01*
X138488000Y-68416613D01*
X138533387Y-68462000D01*
X138550000Y-68524000D01*
X138550000Y-70900000D01*
X138847824Y-70900000D01*
X138907375Y-70893597D01*
X139057166Y-70837729D01*
X139115954Y-70830878D01*
X139171220Y-70852055D01*
X139210376Y-70896436D01*
X139224500Y-70953911D01*
X139224500Y-78467256D01*
X139222235Y-78487762D01*
X139224439Y-78557873D01*
X139224500Y-78561768D01*
X139224500Y-78589349D01*
X139225003Y-78593334D01*
X139225918Y-78604967D01*
X139227290Y-78648626D01*
X139232879Y-78667860D01*
X139236825Y-78686916D01*
X139239335Y-78706792D01*
X139255414Y-78747404D01*
X139259197Y-78758451D01*
X139271382Y-78800391D01*
X139281580Y-78817635D01*
X139290136Y-78835100D01*
X139297514Y-78853732D01*
X139297515Y-78853733D01*
X139323180Y-78889059D01*
X139329593Y-78898822D01*
X139351826Y-78936416D01*
X139351829Y-78936419D01*
X139351830Y-78936420D01*
X139365995Y-78950585D01*
X139378627Y-78965375D01*
X139390406Y-78981587D01*
X139424058Y-79009426D01*
X139432699Y-79017289D01*
X139897354Y-79481944D01*
X139927017Y-79529547D01*
X139932672Y-79585350D01*
X139913161Y-79637935D01*
X139819364Y-79780032D01*
X139730896Y-79987012D01*
X139680809Y-80206462D01*
X139670709Y-80431328D01*
X139700925Y-80654387D01*
X139770483Y-80868464D01*
X139877148Y-81066681D01*
X140017492Y-81242666D01*
X140187004Y-81390765D01*
X140187006Y-81390766D01*
X140380237Y-81506216D01*
X140487527Y-81546482D01*
X140590976Y-81585307D01*
X140812453Y-81625500D01*
X142481153Y-81625500D01*
X142481155Y-81625500D01*
X142649188Y-81610377D01*
X142696919Y-81597203D01*
X142717511Y-81591521D01*
X142774009Y-81589301D01*
X142825618Y-81612395D01*
X142861609Y-81656000D01*
X142874500Y-81711052D01*
X142874500Y-86287121D01*
X142862817Y-86339666D01*
X142829968Y-86382309D01*
X142782145Y-86407015D01*
X142728358Y-86409127D01*
X142537547Y-86374500D01*
X140868845Y-86374500D01*
X140801631Y-86380549D01*
X140700809Y-86389623D01*
X140483828Y-86449507D01*
X140281027Y-86547170D01*
X140098925Y-86679475D01*
X139943365Y-86842178D01*
X139819365Y-87030031D01*
X139730896Y-87237012D01*
X139680809Y-87456462D01*
X139670709Y-87681328D01*
X139700925Y-87904387D01*
X139770483Y-88118464D01*
X139877148Y-88316681D01*
X140017492Y-88492666D01*
X140187004Y-88640765D01*
X140187006Y-88640766D01*
X140380237Y-88756216D01*
X140487527Y-88796482D01*
X140590976Y-88835307D01*
X140812453Y-88875500D01*
X142481153Y-88875500D01*
X142481155Y-88875500D01*
X142649188Y-88860377D01*
X142696919Y-88847203D01*
X142717511Y-88841521D01*
X142774009Y-88839301D01*
X142825618Y-88862395D01*
X142861609Y-88906000D01*
X142874500Y-88961052D01*
X142874500Y-93339548D01*
X142865061Y-93387001D01*
X142838181Y-93427229D01*
X142077228Y-94188181D01*
X142037000Y-94215061D01*
X141989547Y-94224500D01*
X140868845Y-94224500D01*
X140801631Y-94230549D01*
X140700809Y-94239623D01*
X140483828Y-94299507D01*
X140281027Y-94397170D01*
X140098925Y-94529475D01*
X139943365Y-94692178D01*
X139819365Y-94880031D01*
X139730896Y-95087012D01*
X139680809Y-95306462D01*
X139670709Y-95531328D01*
X139700925Y-95754388D01*
X139736211Y-95862988D01*
X139770483Y-95968464D01*
X139877148Y-96166681D01*
X140017492Y-96342666D01*
X140187004Y-96490765D01*
X140187006Y-96490766D01*
X140380237Y-96606216D01*
X140498214Y-96650493D01*
X140590976Y-96685307D01*
X140812453Y-96725500D01*
X142481153Y-96725500D01*
X142481155Y-96725500D01*
X142649188Y-96710377D01*
X142866170Y-96650493D01*
X143068973Y-96552829D01*
X143251078Y-96420522D01*
X143406632Y-96257825D01*
X143530635Y-96069968D01*
X143619103Y-95862988D01*
X143669191Y-95643537D01*
X143679290Y-95418670D01*
X143649075Y-95195613D01*
X143579517Y-94981536D01*
X143472852Y-94783319D01*
X143443632Y-94746679D01*
X143418743Y-94692422D01*
X143422090Y-94632819D01*
X143452898Y-94581690D01*
X143883786Y-94150802D01*
X143899887Y-94137904D01*
X143901874Y-94135787D01*
X143901877Y-94135786D01*
X143947932Y-94086741D01*
X143950613Y-94083976D01*
X143970120Y-94064470D01*
X143972581Y-94061295D01*
X143980152Y-94052431D01*
X144010062Y-94020582D01*
X144019713Y-94003026D01*
X144030393Y-93986767D01*
X144042674Y-93970936D01*
X144060018Y-93930851D01*
X144065160Y-93920356D01*
X144086197Y-93882092D01*
X144091178Y-93862688D01*
X144097480Y-93844283D01*
X144105438Y-93825895D01*
X144112270Y-93782748D01*
X144114639Y-93771316D01*
X144125500Y-93729020D01*
X144125500Y-93708984D01*
X144127027Y-93689585D01*
X144130160Y-93669804D01*
X144126050Y-93626325D01*
X144125500Y-93614656D01*
X144125500Y-85642549D01*
X144140838Y-85582812D01*
X144183057Y-85537852D01*
X144241714Y-85518794D01*
X144302297Y-85530350D01*
X144349817Y-85569663D01*
X144354478Y-85576078D01*
X144517175Y-85731632D01*
X144705032Y-85855635D01*
X144912012Y-85944103D01*
X145131463Y-85994191D01*
X145336998Y-86003421D01*
X145356328Y-86004290D01*
X145356328Y-86004289D01*
X145356330Y-86004290D01*
X145579387Y-85974075D01*
X145793464Y-85904517D01*
X145991681Y-85797852D01*
X146167666Y-85657508D01*
X146315765Y-85487996D01*
X146431215Y-85294764D01*
X146510307Y-85084024D01*
X146550500Y-84862547D01*
X146550500Y-83193845D01*
X146535377Y-83025812D01*
X146475493Y-82808830D01*
X146377829Y-82606027D01*
X146245522Y-82423922D01*
X146082825Y-82268368D01*
X146082822Y-82268366D01*
X146082821Y-82268365D01*
X145894968Y-82144365D01*
X145687987Y-82055896D01*
X145468537Y-82005809D01*
X145243671Y-81995709D01*
X145020611Y-82025925D01*
X144806537Y-82095482D01*
X144718586Y-82142811D01*
X144608319Y-82202148D01*
X144608317Y-82202149D01*
X144608318Y-82202149D01*
X144432335Y-82342490D01*
X144342881Y-82444879D01*
X144294110Y-82478992D01*
X144235063Y-82486451D01*
X144179342Y-82465538D01*
X144139783Y-82421071D01*
X144125500Y-82363294D01*
X144125500Y-70542549D01*
X144140838Y-70482812D01*
X144183057Y-70437852D01*
X144241714Y-70418794D01*
X144302297Y-70430350D01*
X144349817Y-70469663D01*
X144354478Y-70476078D01*
X144517175Y-70631632D01*
X144705032Y-70755635D01*
X144912012Y-70844103D01*
X145131463Y-70894191D01*
X145336998Y-70903421D01*
X145356328Y-70904290D01*
X145356328Y-70904289D01*
X145356330Y-70904290D01*
X145579387Y-70874075D01*
X145793464Y-70804517D01*
X145991681Y-70697852D01*
X146167666Y-70557508D01*
X146315765Y-70387996D01*
X146431215Y-70194764D01*
X146510307Y-69984024D01*
X146550500Y-69762547D01*
X146550500Y-68093845D01*
X146535377Y-67925812D01*
X146475493Y-67708830D01*
X146377829Y-67506027D01*
X146245522Y-67323922D01*
X146082825Y-67168368D01*
X146082822Y-67168366D01*
X146082821Y-67168365D01*
X145894968Y-67044365D01*
X145687987Y-66955896D01*
X145468537Y-66905809D01*
X145243671Y-66895709D01*
X145020611Y-66925925D01*
X144806537Y-66995482D01*
X144718586Y-67042811D01*
X144608319Y-67102148D01*
X144608317Y-67102149D01*
X144608318Y-67102149D01*
X144432335Y-67242490D01*
X144388535Y-67292624D01*
X144346640Y-67340577D01*
X144342881Y-67344879D01*
X144294110Y-67378992D01*
X144235063Y-67386451D01*
X144179342Y-67365538D01*
X144139783Y-67321071D01*
X144125500Y-67263294D01*
X144125500Y-60682744D01*
X144127764Y-60662237D01*
X144125561Y-60592127D01*
X144125500Y-60588232D01*
X144125500Y-60560653D01*
X144124997Y-60556672D01*
X144124080Y-60545019D01*
X144122709Y-60501373D01*
X144117120Y-60482140D01*
X144113174Y-60463082D01*
X144110664Y-60443206D01*
X144094588Y-60402604D01*
X144090804Y-60391553D01*
X144084881Y-60371168D01*
X144078618Y-60349610D01*
X144068414Y-60332355D01*
X144059861Y-60314895D01*
X144052486Y-60296269D01*
X144052486Y-60296268D01*
X144026808Y-60260925D01*
X144020401Y-60251171D01*
X143998169Y-60213579D01*
X143984006Y-60199416D01*
X143971367Y-60184617D01*
X143959595Y-60168413D01*
X143925941Y-60140573D01*
X143917299Y-60132709D01*
X140914613Y-57130022D01*
X140883871Y-57079112D01*
X140882767Y-57060394D01*
X150846712Y-57060394D01*
X150945363Y-57135386D01*
X151251984Y-57319873D01*
X151576746Y-57470124D01*
X151915859Y-57584385D01*
X152265335Y-57661310D01*
X152621078Y-57700000D01*
X152978922Y-57700000D01*
X153334664Y-57661310D01*
X153684140Y-57584385D01*
X154023253Y-57470124D01*
X154348015Y-57319873D01*
X154654637Y-57135385D01*
X154753286Y-57060393D01*
X152800000Y-55107107D01*
X150846712Y-57060393D01*
X150846712Y-57060394D01*
X140882767Y-57060394D01*
X140880370Y-57019743D01*
X140904915Y-56965573D01*
X140951855Y-56929063D01*
X141052730Y-56884151D01*
X141205871Y-56772888D01*
X141332533Y-56632216D01*
X141427179Y-56468284D01*
X141485674Y-56288256D01*
X141505460Y-56100000D01*
X141485674Y-55911744D01*
X141442832Y-55779891D01*
X141427179Y-55731715D01*
X141332533Y-55567783D01*
X141205870Y-55427110D01*
X141052730Y-55315848D01*
X140879802Y-55238855D01*
X140694648Y-55199500D01*
X140694646Y-55199500D01*
X140635453Y-55199500D01*
X140588000Y-55190061D01*
X140547772Y-55163181D01*
X140375802Y-54991211D01*
X140362906Y-54975113D01*
X140311775Y-54927098D01*
X140308978Y-54924387D01*
X140289470Y-54904879D01*
X140286290Y-54902412D01*
X140277424Y-54894839D01*
X140245582Y-54864938D01*
X140228024Y-54855285D01*
X140211764Y-54844604D01*
X140195937Y-54832327D01*
X140186940Y-54828434D01*
X140137910Y-54790246D01*
X140113566Y-54733066D01*
X140120023Y-54671256D01*
X140155654Y-54620346D01*
X140179759Y-54599759D01*
X140255711Y-54510829D01*
X140298086Y-54478753D01*
X140350000Y-54467363D01*
X140401914Y-54478753D01*
X140444288Y-54510829D01*
X140520241Y-54599759D01*
X140705821Y-54758259D01*
X140780408Y-54803966D01*
X140913911Y-54885778D01*
X141139384Y-54979171D01*
X141139387Y-54979171D01*
X141139388Y-54979172D01*
X141376698Y-55036146D01*
X141620000Y-55055294D01*
X141863302Y-55036146D01*
X142100612Y-54979172D01*
X142100613Y-54979171D01*
X142100615Y-54979171D01*
X142326088Y-54885778D01*
X142419664Y-54828434D01*
X142534179Y-54758259D01*
X142719759Y-54599759D01*
X142795711Y-54510829D01*
X142838086Y-54478753D01*
X142890000Y-54467363D01*
X142941914Y-54478753D01*
X142984288Y-54510829D01*
X143060241Y-54599759D01*
X143245821Y-54758259D01*
X143320408Y-54803966D01*
X143453911Y-54885778D01*
X143679384Y-54979171D01*
X143679387Y-54979171D01*
X143679388Y-54979172D01*
X143916698Y-55036146D01*
X144160000Y-55055294D01*
X144403302Y-55036146D01*
X144640612Y-54979172D01*
X144640613Y-54979171D01*
X144640615Y-54979171D01*
X144866085Y-54885779D01*
X144866086Y-54885777D01*
X144866089Y-54885777D01*
X145050860Y-54772548D01*
X145108567Y-54754479D01*
X145167962Y-54765853D01*
X145214914Y-54803966D01*
X145288610Y-54902412D01*
X145292454Y-54907546D01*
X145407669Y-54993796D01*
X145542517Y-55044091D01*
X145602127Y-55050500D01*
X147797872Y-55050499D01*
X147857483Y-55044091D01*
X147992331Y-54993796D01*
X148107546Y-54907546D01*
X148193796Y-54792331D01*
X148244091Y-54657483D01*
X148250500Y-54597873D01*
X148250500Y-54399999D01*
X149495152Y-54399999D01*
X149514525Y-54757310D01*
X149572419Y-55110451D01*
X149668149Y-55455241D01*
X149800601Y-55787670D01*
X149968218Y-56103829D01*
X150138265Y-56354627D01*
X152092893Y-54400001D01*
X152092893Y-54400000D01*
X153507107Y-54400000D01*
X155461733Y-56354627D01*
X155631783Y-56103824D01*
X155799398Y-55787670D01*
X155931850Y-55455241D01*
X156027580Y-55110451D01*
X156085474Y-54757310D01*
X156104847Y-54399999D01*
X156085474Y-54042689D01*
X156027580Y-53689548D01*
X155931850Y-53344758D01*
X155799398Y-53012329D01*
X155631781Y-52696170D01*
X155461734Y-52445371D01*
X155461733Y-52445371D01*
X153507107Y-54400000D01*
X152092893Y-54400000D01*
X150138265Y-52445371D01*
X149968215Y-52696178D01*
X149800601Y-53012329D01*
X149668149Y-53344758D01*
X149572419Y-53689548D01*
X149514525Y-54042689D01*
X149495152Y-54399999D01*
X148250500Y-54399999D01*
X148250499Y-52402128D01*
X148244091Y-52342517D01*
X148193796Y-52207669D01*
X148107546Y-52092454D01*
X147992331Y-52006204D01*
X147857483Y-51955909D01*
X147797873Y-51949500D01*
X147797869Y-51949500D01*
X145602130Y-51949500D01*
X145542515Y-51955909D01*
X145407669Y-52006204D01*
X145292451Y-52092456D01*
X145214913Y-52196033D01*
X145167962Y-52234146D01*
X145108567Y-52245520D01*
X145050857Y-52227449D01*
X144866088Y-52114221D01*
X144640615Y-52020828D01*
X144403303Y-51963854D01*
X144160000Y-51944706D01*
X143916696Y-51963854D01*
X143679384Y-52020828D01*
X143453911Y-52114221D01*
X143245822Y-52241740D01*
X143060241Y-52400241D01*
X142984290Y-52489168D01*
X142941914Y-52521246D01*
X142890000Y-52532636D01*
X142838086Y-52521246D01*
X142795710Y-52489168D01*
X142777844Y-52468250D01*
X142719759Y-52400241D01*
X142534179Y-52241741D01*
X142478579Y-52207669D01*
X142326088Y-52114221D01*
X142100615Y-52020828D01*
X141863303Y-51963854D01*
X141620000Y-51944706D01*
X141376696Y-51963854D01*
X141139384Y-52020828D01*
X140913911Y-52114221D01*
X140705822Y-52241740D01*
X140520241Y-52400241D01*
X140444290Y-52489168D01*
X140401914Y-52521246D01*
X140350000Y-52532636D01*
X140298086Y-52521246D01*
X140255710Y-52489168D01*
X140237844Y-52468250D01*
X140179759Y-52400241D01*
X139994179Y-52241741D01*
X139938579Y-52207669D01*
X139786088Y-52114221D01*
X139560615Y-52020828D01*
X139323303Y-51963854D01*
X139080000Y-51944706D01*
X138836696Y-51963854D01*
X138599384Y-52020828D01*
X138373911Y-52114221D01*
X138165822Y-52241740D01*
X137980241Y-52400241D01*
X137821740Y-52585822D01*
X137694221Y-52793911D01*
X137600828Y-53019384D01*
X137568902Y-53152363D01*
X137536010Y-53211096D01*
X137247107Y-53500001D01*
X137536009Y-53788902D01*
X137568902Y-53847635D01*
X137600828Y-53980616D01*
X137694221Y-54206088D01*
X137803902Y-54385068D01*
X137821741Y-54414179D01*
X137980241Y-54599759D01*
X138165821Y-54758259D01*
X138184266Y-54769562D01*
X138196651Y-54777152D01*
X138236296Y-54816026D01*
X138255002Y-54868305D01*
X138249017Y-54923505D01*
X138219542Y-54970560D01*
X137891208Y-55298894D01*
X137875110Y-55311791D01*
X137827096Y-55362920D01*
X137824391Y-55365712D01*
X137804874Y-55385229D01*
X137802415Y-55388400D01*
X137794842Y-55397267D01*
X137764935Y-55429115D01*
X137755285Y-55446669D01*
X137744609Y-55462923D01*
X137732326Y-55478758D01*
X137714975Y-55518853D01*
X137709838Y-55529339D01*
X137688802Y-55567602D01*
X137683821Y-55587004D01*
X137677520Y-55605406D01*
X137669561Y-55623797D01*
X137662728Y-55666937D01*
X137660360Y-55678369D01*
X137649500Y-55720673D01*
X137649500Y-55740711D01*
X137647973Y-55760110D01*
X137644840Y-55779889D01*
X137648950Y-55823370D01*
X137649500Y-55835039D01*
X137649500Y-66142256D01*
X137647235Y-66162762D01*
X137649439Y-66232873D01*
X137649500Y-66236768D01*
X137649500Y-66264349D01*
X137650003Y-66268334D01*
X137650918Y-66279967D01*
X137652290Y-66323626D01*
X137657879Y-66342860D01*
X137661825Y-66361916D01*
X137664335Y-66381792D01*
X137680414Y-66422404D01*
X137684197Y-66433451D01*
X137696382Y-66475391D01*
X137706580Y-66492635D01*
X137715136Y-66510100D01*
X137722514Y-66528732D01*
X137722515Y-66528733D01*
X137748180Y-66564059D01*
X137754593Y-66573822D01*
X137776826Y-66611416D01*
X137776829Y-66611419D01*
X137776830Y-66611420D01*
X137790995Y-66625585D01*
X137803627Y-66640375D01*
X137815406Y-66656587D01*
X137844259Y-66680456D01*
X137879928Y-66728907D01*
X137888593Y-66788444D01*
X137868213Y-66845052D01*
X137823586Y-66885404D01*
X137765219Y-66900000D01*
X137252176Y-66900000D01*
X137192624Y-66906402D01*
X137057910Y-66956647D01*
X136942811Y-67042811D01*
X136856647Y-67157910D01*
X136806402Y-67292624D01*
X136800000Y-67352176D01*
X136800000Y-68400000D01*
X126675500Y-68400000D01*
X126675500Y-57060394D01*
X128721712Y-57060394D01*
X128820363Y-57135386D01*
X129126984Y-57319873D01*
X129451746Y-57470124D01*
X129790859Y-57584385D01*
X130140335Y-57661310D01*
X130496078Y-57700000D01*
X130853922Y-57700000D01*
X131209664Y-57661310D01*
X131559140Y-57584385D01*
X131898253Y-57470124D01*
X132223015Y-57319873D01*
X132529637Y-57135385D01*
X132628286Y-57060393D01*
X130675000Y-55107107D01*
X128721712Y-57060393D01*
X128721712Y-57060394D01*
X126675500Y-57060394D01*
X126675500Y-54400000D01*
X127370152Y-54400000D01*
X127389525Y-54757310D01*
X127447419Y-55110451D01*
X127543149Y-55455241D01*
X127675601Y-55787670D01*
X127843218Y-56103829D01*
X128013265Y-56354627D01*
X129967893Y-54400001D01*
X129967893Y-54400000D01*
X131382107Y-54400000D01*
X133336733Y-56354627D01*
X133506783Y-56103824D01*
X133674398Y-55787670D01*
X133806850Y-55455241D01*
X133902580Y-55110451D01*
X133938159Y-54893424D01*
X135853680Y-54893424D01*
X136059542Y-54978696D01*
X136296775Y-55035650D01*
X136540000Y-55054792D01*
X136783224Y-55035650D01*
X137020457Y-54978696D01*
X137226318Y-54893424D01*
X136540001Y-54207107D01*
X136540000Y-54207107D01*
X135853680Y-54893424D01*
X133938159Y-54893424D01*
X133960474Y-54757310D01*
X133979847Y-54399999D01*
X133960474Y-54042689D01*
X133902580Y-53689548D01*
X133849952Y-53499999D01*
X134985207Y-53499999D01*
X135004349Y-53743224D01*
X135061303Y-53980457D01*
X135146574Y-54186318D01*
X135832893Y-53500001D01*
X135832893Y-53500000D01*
X135146574Y-52813680D01*
X135061304Y-53019540D01*
X135004349Y-53256775D01*
X134985207Y-53499999D01*
X133849952Y-53499999D01*
X133806850Y-53344758D01*
X133674398Y-53012329D01*
X133506781Y-52696170D01*
X133336734Y-52445371D01*
X133336733Y-52445371D01*
X131382107Y-54400000D01*
X129967893Y-54400000D01*
X128013265Y-52445371D01*
X127843215Y-52696178D01*
X127675601Y-53012329D01*
X127543149Y-53344758D01*
X127447419Y-53689548D01*
X127389525Y-54042689D01*
X127370152Y-54400000D01*
X126675500Y-54400000D01*
X126675500Y-51739605D01*
X128721711Y-51739605D01*
X130675000Y-53692893D01*
X130675001Y-53692893D01*
X132261318Y-52106574D01*
X135853680Y-52106574D01*
X136540000Y-52792893D01*
X136540001Y-52792893D01*
X137226318Y-52106574D01*
X137020457Y-52021303D01*
X136783224Y-51964349D01*
X136540000Y-51945207D01*
X136296775Y-51964349D01*
X136059540Y-52021304D01*
X135853680Y-52106574D01*
X132261318Y-52106574D01*
X132628287Y-51739605D01*
X150846711Y-51739605D01*
X152800000Y-53692893D01*
X152800001Y-53692893D01*
X154753287Y-51739605D01*
X154654636Y-51664613D01*
X154348015Y-51480126D01*
X154023253Y-51329875D01*
X153684140Y-51215614D01*
X153334664Y-51138689D01*
X152978922Y-51100000D01*
X152621078Y-51100000D01*
X152265335Y-51138689D01*
X151915859Y-51215614D01*
X151576746Y-51329875D01*
X151251987Y-51480125D01*
X150945361Y-51664614D01*
X150846712Y-51739605D01*
X150846711Y-51739605D01*
X132628287Y-51739605D01*
X132529636Y-51664613D01*
X132223015Y-51480126D01*
X131898253Y-51329875D01*
X131559140Y-51215614D01*
X131209664Y-51138689D01*
X130853922Y-51100000D01*
X130496078Y-51100000D01*
X130140335Y-51138689D01*
X129790859Y-51215614D01*
X129451746Y-51329875D01*
X129126987Y-51480125D01*
X128820361Y-51664614D01*
X128721712Y-51739605D01*
X128721711Y-51739605D01*
X126675500Y-51739605D01*
X126675500Y-49524500D01*
X126692113Y-49462500D01*
X126737500Y-49417113D01*
X126799500Y-49400500D01*
X156550500Y-49400500D01*
X156612500Y-49417113D01*
G37*
%TD.AperFunction*%
%TD*%
M02*
