%TF.GenerationSoftware,KiCad,Pcbnew,7.0.1*%
%TF.CreationDate,2023-03-24T14:01:55+01:00*%
%TF.ProjectId,mainboard,6d61696e-626f-4617-9264-2e6b69636164,1.0*%
%TF.SameCoordinates,Original*%
%TF.FileFunction,Soldermask,Top*%
%TF.FilePolarity,Negative*%
%FSLAX46Y46*%
G04 Gerber Fmt 4.6, Leading zero omitted, Abs format (unit mm)*
G04 Created by KiCad (PCBNEW 7.0.1) date 2023-03-24 14:01:55*
%MOMM*%
%LPD*%
G01*
G04 APERTURE LIST*
G04 Aperture macros list*
%AMRoundRect*
0 Rectangle with rounded corners*
0 $1 Rounding radius*
0 $2 $3 $4 $5 $6 $7 $8 $9 X,Y pos of 4 corners*
0 Add a 4 corners polygon primitive as box body*
4,1,4,$2,$3,$4,$5,$6,$7,$8,$9,$2,$3,0*
0 Add four circle primitives for the rounded corners*
1,1,$1+$1,$2,$3*
1,1,$1+$1,$4,$5*
1,1,$1+$1,$6,$7*
1,1,$1+$1,$8,$9*
0 Add four rect primitives between the rounded corners*
20,1,$1+$1,$2,$3,$4,$5,0*
20,1,$1+$1,$4,$5,$6,$7,0*
20,1,$1+$1,$6,$7,$8,$9,0*
20,1,$1+$1,$8,$9,$2,$3,0*%
%AMFreePoly0*
4,1,6,1.000000,0.000000,0.500000,-0.750000,-0.500000,-0.750000,-0.500000,0.750000,0.500000,0.750000,1.000000,0.000000,1.000000,0.000000,$1*%
%AMFreePoly1*
4,1,6,0.500000,-0.750000,-0.650000,-0.750000,-0.150000,0.000000,-0.650000,0.750000,0.500000,0.750000,0.500000,-0.750000,0.500000,-0.750000,$1*%
G04 Aperture macros list end*
%ADD10RoundRect,0.250000X-0.625000X0.312500X-0.625000X-0.312500X0.625000X-0.312500X0.625000X0.312500X0*%
%ADD11RoundRect,0.225000X0.250000X-0.225000X0.250000X0.225000X-0.250000X0.225000X-0.250000X-0.225000X0*%
%ADD12C,5.600000*%
%ADD13RoundRect,0.225000X-0.250000X0.225000X-0.250000X-0.225000X0.250000X-0.225000X0.250000X0.225000X0*%
%ADD14FreePoly0,90.000000*%
%ADD15FreePoly1,90.000000*%
%ADD16RoundRect,0.200000X-0.200000X-0.275000X0.200000X-0.275000X0.200000X0.275000X-0.200000X0.275000X0*%
%ADD17R,1.600000X1.600000*%
%ADD18O,1.600000X1.600000*%
%ADD19R,1.905000X2.000000*%
%ADD20O,1.905000X2.000000*%
%ADD21O,5.000000X2.500000*%
%ADD22O,4.500000X2.250000*%
%ADD23O,2.250000X4.500000*%
%ADD24RoundRect,0.200000X0.200000X0.275000X-0.200000X0.275000X-0.200000X-0.275000X0.200000X-0.275000X0*%
%ADD25RoundRect,0.218750X-0.218750X-0.256250X0.218750X-0.256250X0.218750X0.256250X-0.218750X0.256250X0*%
%ADD26R,1.700000X1.700000*%
%ADD27O,1.700000X1.700000*%
%ADD28R,2.100000X2.100000*%
%ADD29C,2.100000*%
%ADD30R,1.300000X1.300000*%
%ADD31C,1.300000*%
%ADD32C,1.200000*%
%ADD33RoundRect,0.218750X0.218750X0.256250X-0.218750X0.256250X-0.218750X-0.256250X0.218750X-0.256250X0*%
%ADD34C,1.500000*%
G04 APERTURE END LIST*
D10*
%TO.C,F1*%
X122200000Y-64737500D03*
X122200000Y-67662500D03*
%TD*%
D11*
%TO.C,C5*%
X159380000Y-93355000D03*
X159380000Y-91805000D03*
%TD*%
D12*
%TO.C,H4*%
X173900000Y-124600000D03*
%TD*%
D13*
%TO.C,C3*%
X163380000Y-93335000D03*
X163380000Y-94885000D03*
%TD*%
D14*
%TO.C,JP1*%
X123300000Y-105825000D03*
D15*
X123300000Y-104375000D03*
%TD*%
D12*
%TO.C,H2*%
X173900000Y-66600000D03*
%TD*%
D13*
%TO.C,C4*%
X176780000Y-96782500D03*
X176780000Y-98332500D03*
%TD*%
D16*
%TO.C,R5*%
X142255000Y-106200000D03*
X143905000Y-106200000D03*
%TD*%
D17*
%TO.C,U2*%
X166080000Y-78080000D03*
D18*
X166080000Y-80620000D03*
X166080000Y-83160000D03*
X166080000Y-85700000D03*
X166080000Y-88240000D03*
X166080000Y-90780000D03*
X166080000Y-93320000D03*
X166080000Y-95860000D03*
X166080000Y-98400000D03*
X166080000Y-100940000D03*
X166080000Y-103480000D03*
X166080000Y-106020000D03*
X166080000Y-108560000D03*
X166080000Y-111100000D03*
X173700000Y-111100000D03*
X173700000Y-108560000D03*
X173700000Y-106020000D03*
X173700000Y-103480000D03*
X173700000Y-100940000D03*
X173700000Y-98400000D03*
X173700000Y-95860000D03*
X173700000Y-93320000D03*
X173700000Y-90780000D03*
X173700000Y-88240000D03*
X173700000Y-85700000D03*
X173700000Y-83160000D03*
X173700000Y-80620000D03*
X173700000Y-78080000D03*
%TD*%
D16*
%TO.C,R4*%
X130615000Y-106345000D03*
X132265000Y-106345000D03*
%TD*%
D12*
%TO.C,H3*%
X115900000Y-124600000D03*
%TD*%
%TO.C,H1*%
X115900000Y-66600000D03*
%TD*%
D19*
%TO.C,Q3*%
X143900000Y-111100000D03*
D20*
X146440000Y-111100000D03*
X148980000Y-111100000D03*
%TD*%
D21*
%TO.C,J1*%
X129100000Y-74600000D03*
D22*
X129100000Y-68600000D03*
D23*
X124400000Y-71600000D03*
%TD*%
D19*
%TO.C,Q1*%
X120720000Y-111100000D03*
D20*
X123260000Y-111100000D03*
X125800000Y-111100000D03*
%TD*%
D24*
%TO.C,R1*%
X118000000Y-76600000D03*
X116350000Y-76600000D03*
%TD*%
D25*
%TO.C,D1*%
X116412500Y-74500000D03*
X117987500Y-74500000D03*
%TD*%
D26*
%TO.C,J4*%
X166500000Y-64860000D03*
D27*
X166500000Y-67400000D03*
X163960000Y-64860000D03*
X163960000Y-67400000D03*
X161420000Y-64860000D03*
X161420000Y-67400000D03*
X158880000Y-64860000D03*
X158880000Y-67400000D03*
%TD*%
D28*
%TO.C,J3*%
X128120000Y-126100000D03*
D29*
X130660000Y-126100000D03*
X133200000Y-126100000D03*
X135740000Y-126100000D03*
%TD*%
D30*
%TO.C,U1*%
X127500000Y-82020000D03*
D31*
X127500000Y-84560000D03*
X127500000Y-87100000D03*
%TD*%
D28*
%TO.C,J2*%
X148520000Y-126100000D03*
D29*
X151060000Y-126100000D03*
X153600000Y-126100000D03*
X156140000Y-126100000D03*
X158680000Y-126100000D03*
%TD*%
D14*
%TO.C,JP3*%
X146480000Y-105825000D03*
D15*
X146480000Y-104375000D03*
%TD*%
D19*
%TO.C,Q2*%
X132300000Y-111100000D03*
D20*
X134840000Y-111100000D03*
X137380000Y-111100000D03*
%TD*%
D32*
%TO.C,C1*%
X121950000Y-81260000D03*
X119950000Y-81260000D03*
%TD*%
D16*
%TO.C,R3*%
X119095000Y-106400000D03*
X120745000Y-106400000D03*
%TD*%
D33*
%TO.C,D2*%
X139487500Y-89700000D03*
X137912500Y-89700000D03*
%TD*%
D16*
%TO.C,R6*%
X166050000Y-73800000D03*
X167700000Y-73800000D03*
%TD*%
D34*
%TO.C,Y1*%
X159380000Y-102610000D03*
X159380000Y-97730000D03*
%TD*%
D13*
%TO.C,C6*%
X159380000Y-106965000D03*
X159380000Y-108515000D03*
%TD*%
D32*
%TO.C,C2*%
X121950000Y-88460000D03*
X119950000Y-88460000D03*
%TD*%
D24*
%TO.C,R2*%
X143425000Y-89700000D03*
X141775000Y-89700000D03*
%TD*%
D14*
%TO.C,JP2*%
X134900000Y-105825000D03*
D15*
X134900000Y-104375000D03*
%TD*%
M02*
