%TF.GenerationSoftware,KiCad,Pcbnew,7.0.1*%
%TF.CreationDate,2023-03-29T16:15:43+02:00*%
%TF.ProjectId,mainboard,6d61696e-626f-4617-9264-2e6b69636164,1.0*%
%TF.SameCoordinates,Original*%
%TF.FileFunction,Copper,L1,Top*%
%TF.FilePolarity,Positive*%
%FSLAX46Y46*%
G04 Gerber Fmt 4.6, Leading zero omitted, Abs format (unit mm)*
G04 Created by KiCad (PCBNEW 7.0.1) date 2023-03-29 16:15:43*
%MOMM*%
%LPD*%
G01*
G04 APERTURE LIST*
G04 Aperture macros list*
%AMRoundRect*
0 Rectangle with rounded corners*
0 $1 Rounding radius*
0 $2 $3 $4 $5 $6 $7 $8 $9 X,Y pos of 4 corners*
0 Add a 4 corners polygon primitive as box body*
4,1,4,$2,$3,$4,$5,$6,$7,$8,$9,$2,$3,0*
0 Add four circle primitives for the rounded corners*
1,1,$1+$1,$2,$3*
1,1,$1+$1,$4,$5*
1,1,$1+$1,$6,$7*
1,1,$1+$1,$8,$9*
0 Add four rect primitives between the rounded corners*
20,1,$1+$1,$2,$3,$4,$5,0*
20,1,$1+$1,$4,$5,$6,$7,0*
20,1,$1+$1,$6,$7,$8,$9,0*
20,1,$1+$1,$8,$9,$2,$3,0*%
%AMFreePoly0*
4,1,6,1.000000,0.000000,0.500000,-0.750000,-0.500000,-0.750000,-0.500000,0.750000,0.500000,0.750000,1.000000,0.000000,1.000000,0.000000,$1*%
%AMFreePoly1*
4,1,6,0.500000,-0.750000,-0.650000,-0.750000,-0.150000,0.000000,-0.650000,0.750000,0.500000,0.750000,0.500000,-0.750000,0.500000,-0.750000,$1*%
G04 Aperture macros list end*
%TA.AperFunction,SMDPad,CuDef*%
%ADD10RoundRect,0.225000X0.250000X-0.225000X0.250000X0.225000X-0.250000X0.225000X-0.250000X-0.225000X0*%
%TD*%
%TA.AperFunction,ComponentPad*%
%ADD11C,5.600000*%
%TD*%
%TA.AperFunction,SMDPad,CuDef*%
%ADD12RoundRect,0.225000X-0.250000X0.225000X-0.250000X-0.225000X0.250000X-0.225000X0.250000X0.225000X0*%
%TD*%
%TA.AperFunction,SMDPad,CuDef*%
%ADD13FreePoly0,90.000000*%
%TD*%
%TA.AperFunction,SMDPad,CuDef*%
%ADD14FreePoly1,90.000000*%
%TD*%
%TA.AperFunction,SMDPad,CuDef*%
%ADD15RoundRect,0.200000X-0.200000X-0.275000X0.200000X-0.275000X0.200000X0.275000X-0.200000X0.275000X0*%
%TD*%
%TA.AperFunction,ComponentPad*%
%ADD16R,1.600000X1.600000*%
%TD*%
%TA.AperFunction,ComponentPad*%
%ADD17O,1.600000X1.600000*%
%TD*%
%TA.AperFunction,ComponentPad*%
%ADD18R,1.905000X2.000000*%
%TD*%
%TA.AperFunction,ComponentPad*%
%ADD19O,1.905000X2.000000*%
%TD*%
%TA.AperFunction,ComponentPad*%
%ADD20O,5.000000X2.500000*%
%TD*%
%TA.AperFunction,ComponentPad*%
%ADD21O,4.500000X2.250000*%
%TD*%
%TA.AperFunction,ComponentPad*%
%ADD22O,2.250000X4.500000*%
%TD*%
%TA.AperFunction,SMDPad,CuDef*%
%ADD23RoundRect,0.200000X0.200000X0.275000X-0.200000X0.275000X-0.200000X-0.275000X0.200000X-0.275000X0*%
%TD*%
%TA.AperFunction,SMDPad,CuDef*%
%ADD24RoundRect,0.218750X-0.218750X-0.256250X0.218750X-0.256250X0.218750X0.256250X-0.218750X0.256250X0*%
%TD*%
%TA.AperFunction,ComponentPad*%
%ADD25R,1.700000X1.700000*%
%TD*%
%TA.AperFunction,ComponentPad*%
%ADD26O,1.700000X1.700000*%
%TD*%
%TA.AperFunction,ComponentPad*%
%ADD27R,2.100000X2.100000*%
%TD*%
%TA.AperFunction,ComponentPad*%
%ADD28C,2.100000*%
%TD*%
%TA.AperFunction,ComponentPad*%
%ADD29R,1.300000X1.300000*%
%TD*%
%TA.AperFunction,ComponentPad*%
%ADD30C,1.300000*%
%TD*%
%TA.AperFunction,ComponentPad*%
%ADD31C,1.200000*%
%TD*%
%TA.AperFunction,SMDPad,CuDef*%
%ADD32RoundRect,0.218750X0.218750X0.256250X-0.218750X0.256250X-0.218750X-0.256250X0.218750X-0.256250X0*%
%TD*%
%TA.AperFunction,SMDPad,CuDef*%
%ADD33RoundRect,0.250000X-0.625000X0.312500X-0.625000X-0.312500X0.625000X-0.312500X0.625000X0.312500X0*%
%TD*%
%TA.AperFunction,ComponentPad*%
%ADD34C,1.500000*%
%TD*%
%TA.AperFunction,ViaPad*%
%ADD35C,0.800000*%
%TD*%
%TA.AperFunction,ViaPad*%
%ADD36C,1.400000*%
%TD*%
%TA.AperFunction,Conductor*%
%ADD37C,0.500000*%
%TD*%
%TA.AperFunction,Conductor*%
%ADD38C,1.000000*%
%TD*%
%TA.AperFunction,Conductor*%
%ADD39C,0.200000*%
%TD*%
%TA.AperFunction,Conductor*%
%ADD40C,3.000000*%
%TD*%
G04 APERTURE END LIST*
D10*
%TO.P,C5,1*%
%TO.N,Net-(U2-XTAL1{slash}PB6)*%
X159380000Y-93355000D03*
%TO.P,C5,2*%
%TO.N,GND*%
X159380000Y-91805000D03*
%TD*%
D11*
%TO.P,H4,1,1*%
%TO.N,GND*%
X173900000Y-124600000D03*
%TD*%
D12*
%TO.P,C3,1*%
%TO.N,5V*%
X163380000Y-93335000D03*
%TO.P,C3,2*%
%TO.N,GND*%
X163380000Y-94885000D03*
%TD*%
D13*
%TO.P,JP1,1,A*%
%TO.N,/12V_LOAD_1*%
X123300000Y-105825000D03*
D14*
%TO.P,JP1,2,B*%
%TO.N,+12V*%
X123300000Y-104375000D03*
%TD*%
D11*
%TO.P,H2,1,1*%
%TO.N,GND*%
X173900000Y-66600000D03*
%TD*%
D12*
%TO.P,C4,1*%
%TO.N,GND*%
X176780000Y-96782500D03*
%TO.P,C4,2*%
%TO.N,5V*%
X176780000Y-98332500D03*
%TD*%
D15*
%TO.P,R5,1*%
%TO.N,Net-(U2-PD7)*%
X142255000Y-106200000D03*
%TO.P,R5,2*%
%TO.N,GATE3*%
X143905000Y-106200000D03*
%TD*%
D16*
%TO.P,U2,1,~{RESET}/PC6*%
%TO.N,RESET*%
X166080000Y-78080000D03*
D17*
%TO.P,U2,2,PD0*%
%TO.N,RX*%
X166080000Y-80620000D03*
%TO.P,U2,3,PD1*%
%TO.N,TX*%
X166080000Y-83160000D03*
%TO.P,U2,4,PD2*%
%TO.N,unconnected-(U2-PD2-Pad4)*%
X166080000Y-85700000D03*
%TO.P,U2,5,PD3*%
%TO.N,unconnected-(U2-PD3-Pad5)*%
X166080000Y-88240000D03*
%TO.P,U2,6,PD4*%
%TO.N,unconnected-(U2-PD4-Pad6)*%
X166080000Y-90780000D03*
%TO.P,U2,7,VCC*%
%TO.N,5V*%
X166080000Y-93320000D03*
%TO.P,U2,8,GND*%
%TO.N,GND*%
X166080000Y-95860000D03*
%TO.P,U2,9,XTAL1/PB6*%
%TO.N,Net-(U2-XTAL1{slash}PB6)*%
X166080000Y-98400000D03*
%TO.P,U2,10,XTAL2/PB7*%
%TO.N,Net-(U2-XTAL2{slash}PB7)*%
X166080000Y-100940000D03*
%TO.P,U2,11,PD5*%
%TO.N,Net-(U2-PD5)*%
X166080000Y-103480000D03*
%TO.P,U2,12,PD6*%
%TO.N,Net-(U2-PD6)*%
X166080000Y-106020000D03*
%TO.P,U2,13,PD7*%
%TO.N,Net-(U2-PD7)*%
X166080000Y-108560000D03*
%TO.P,U2,14,PB0*%
%TO.N,RearLightButton*%
X166080000Y-111100000D03*
%TO.P,U2,15,PB1*%
%TO.N,IndicatorButton*%
X173700000Y-111100000D03*
%TO.P,U2,16,PB2*%
%TO.N,BrakeButton*%
X173700000Y-108560000D03*
%TO.P,U2,17,PB3*%
%TO.N,MOSI*%
X173700000Y-106020000D03*
%TO.P,U2,18,PB4*%
%TO.N,MISO*%
X173700000Y-103480000D03*
%TO.P,U2,19,PB5*%
%TO.N,SCK*%
X173700000Y-100940000D03*
%TO.P,U2,20,AVCC*%
%TO.N,5V*%
X173700000Y-98400000D03*
%TO.P,U2,21,AREF*%
%TO.N,unconnected-(U2-AREF-Pad21)*%
X173700000Y-95860000D03*
%TO.P,U2,22,GND*%
%TO.N,GND*%
X173700000Y-93320000D03*
%TO.P,U2,23,PC0*%
%TO.N,unconnected-(U2-PC0-Pad23)*%
X173700000Y-90780000D03*
%TO.P,U2,24,PC1*%
%TO.N,unconnected-(U2-PC1-Pad24)*%
X173700000Y-88240000D03*
%TO.P,U2,25,PC2*%
%TO.N,unconnected-(U2-PC2-Pad25)*%
X173700000Y-85700000D03*
%TO.P,U2,26,PC3*%
%TO.N,unconnected-(U2-PC3-Pad26)*%
X173700000Y-83160000D03*
%TO.P,U2,27,PC4*%
%TO.N,unconnected-(U2-PC4-Pad27)*%
X173700000Y-80620000D03*
%TO.P,U2,28,PC5*%
%TO.N,unconnected-(U2-PC5-Pad28)*%
X173700000Y-78080000D03*
%TD*%
D15*
%TO.P,R4,1*%
%TO.N,Net-(U2-PD6)*%
X130615000Y-106345000D03*
%TO.P,R4,2*%
%TO.N,GATE2*%
X132265000Y-106345000D03*
%TD*%
D11*
%TO.P,H3,1,1*%
%TO.N,GND*%
X115900000Y-124600000D03*
%TD*%
%TO.P,H1,1,1*%
%TO.N,GND*%
X115900000Y-66600000D03*
%TD*%
D18*
%TO.P,Q3,1,G*%
%TO.N,GATE3*%
X143900000Y-111100000D03*
D19*
%TO.P,Q3,2,D*%
%TO.N,/12V_LOAD_3*%
X146440000Y-111100000D03*
%TO.P,Q3,3,S*%
%TO.N,GND*%
X148980000Y-111100000D03*
%TD*%
D20*
%TO.P,J1,1*%
%TO.N,Net-(F1-Pad1)*%
X129100000Y-74600000D03*
D21*
%TO.P,J1,2*%
%TO.N,GND*%
X129100000Y-68600000D03*
D22*
%TO.P,J1,3*%
X124400000Y-71600000D03*
%TD*%
D18*
%TO.P,Q1,1,G*%
%TO.N,GATE1*%
X120720000Y-111100000D03*
D19*
%TO.P,Q1,2,D*%
%TO.N,/12V_LOAD_1*%
X123260000Y-111100000D03*
%TO.P,Q1,3,S*%
%TO.N,GND*%
X125800000Y-111100000D03*
%TD*%
D23*
%TO.P,R1,1*%
%TO.N,GND*%
X118000000Y-76600000D03*
%TO.P,R1,2*%
%TO.N,Net-(D1-K)*%
X116350000Y-76600000D03*
%TD*%
D24*
%TO.P,D1,1,K*%
%TO.N,Net-(D1-K)*%
X116412500Y-74500000D03*
%TO.P,D1,2,A*%
%TO.N,+12V*%
X117987500Y-74500000D03*
%TD*%
D25*
%TO.P,J4,1,Pin_1*%
%TO.N,MISO*%
X166500000Y-64860000D03*
D26*
%TO.P,J4,2,Pin_2*%
%TO.N,5V*%
X166500000Y-67400000D03*
%TO.P,J4,3,Pin_3*%
%TO.N,SCK*%
X163960000Y-64860000D03*
%TO.P,J4,4,Pin_4*%
%TO.N,MOSI*%
X163960000Y-67400000D03*
%TO.P,J4,5,Pin_5*%
%TO.N,RESET*%
X161420000Y-64860000D03*
%TO.P,J4,6,Pin_6*%
%TO.N,RX*%
X161420000Y-67400000D03*
%TO.P,J4,7,Pin_7*%
%TO.N,TX*%
X158880000Y-64860000D03*
%TO.P,J4,8,Pin_8*%
%TO.N,GND*%
X158880000Y-67400000D03*
%TD*%
D27*
%TO.P,J3,1,Pin_1*%
%TO.N,/12V_LOAD_1*%
X128120000Y-126100000D03*
D28*
%TO.P,J3,2,Pin_2*%
%TO.N,/12V_LOAD_2*%
X130660000Y-126100000D03*
%TO.P,J3,3,Pin_3*%
%TO.N,/12V_LOAD_3*%
X133200000Y-126100000D03*
%TO.P,J3,4,Pin_4*%
%TO.N,GND*%
X135740000Y-126100000D03*
%TD*%
D29*
%TO.P,U1,1,Vin*%
%TO.N,+12V*%
X127500000Y-82020000D03*
D30*
%TO.P,U1,2,GND*%
%TO.N,GND*%
X127500000Y-84560000D03*
%TO.P,U1,3,Vout*%
%TO.N,5V*%
X127500000Y-87100000D03*
%TD*%
D27*
%TO.P,J2,1,Pin_1*%
%TO.N,5V*%
X148520000Y-126100000D03*
D28*
%TO.P,J2,2,Pin_2*%
%TO.N,RearLightButton*%
X151060000Y-126100000D03*
%TO.P,J2,3,Pin_3*%
%TO.N,IndicatorButton*%
X153600000Y-126100000D03*
%TO.P,J2,4,Pin_4*%
%TO.N,BrakeButton*%
X156140000Y-126100000D03*
%TO.P,J2,5,Pin_5*%
%TO.N,GND*%
X158680000Y-126100000D03*
%TD*%
D13*
%TO.P,JP3,1,A*%
%TO.N,/12V_LOAD_3*%
X146480000Y-105825000D03*
D14*
%TO.P,JP3,2,B*%
%TO.N,+12V*%
X146480000Y-104375000D03*
%TD*%
D18*
%TO.P,Q2,1,G*%
%TO.N,GATE2*%
X132300000Y-111100000D03*
D19*
%TO.P,Q2,2,D*%
%TO.N,/12V_LOAD_2*%
X134840000Y-111100000D03*
%TO.P,Q2,3,S*%
%TO.N,GND*%
X137380000Y-111100000D03*
%TD*%
D31*
%TO.P,C1,1*%
%TO.N,+12V*%
X121950000Y-81260000D03*
%TO.P,C1,2*%
%TO.N,GND*%
X119950000Y-81260000D03*
%TD*%
D15*
%TO.P,R3,1*%
%TO.N,Net-(U2-PD5)*%
X119095000Y-106400000D03*
%TO.P,R3,2*%
%TO.N,GATE1*%
X120745000Y-106400000D03*
%TD*%
D32*
%TO.P,D2,1,K*%
%TO.N,Net-(D2-K)*%
X139487500Y-89700000D03*
%TO.P,D2,2,A*%
%TO.N,5V*%
X137912500Y-89700000D03*
%TD*%
D33*
%TO.P,F1,1*%
%TO.N,Net-(F1-Pad1)*%
X122200000Y-64737500D03*
%TO.P,F1,2*%
%TO.N,+12V*%
X122200000Y-67662500D03*
%TD*%
D15*
%TO.P,R6,1*%
%TO.N,RESET*%
X166050000Y-73800000D03*
%TO.P,R6,2*%
%TO.N,5V*%
X167700000Y-73800000D03*
%TD*%
D34*
%TO.P,Y1,1,1*%
%TO.N,Net-(U2-XTAL2{slash}PB7)*%
X159380000Y-102610000D03*
%TO.P,Y1,2,2*%
%TO.N,Net-(U2-XTAL1{slash}PB6)*%
X159380000Y-97730000D03*
%TD*%
D12*
%TO.P,C6,1*%
%TO.N,Net-(U2-XTAL2{slash}PB7)*%
X159380000Y-106965000D03*
%TO.P,C6,2*%
%TO.N,GND*%
X159380000Y-108515000D03*
%TD*%
D31*
%TO.P,C2,1*%
%TO.N,5V*%
X121950000Y-88460000D03*
%TO.P,C2,2*%
%TO.N,GND*%
X119950000Y-88460000D03*
%TD*%
D23*
%TO.P,R2,1*%
%TO.N,GND*%
X143425000Y-89700000D03*
%TO.P,R2,2*%
%TO.N,Net-(D2-K)*%
X141775000Y-89700000D03*
%TD*%
D13*
%TO.P,JP2,1,A*%
%TO.N,/12V_LOAD_2*%
X134900000Y-105825000D03*
D14*
%TO.P,JP2,2,B*%
%TO.N,+12V*%
X134900000Y-104375000D03*
%TD*%
D35*
%TO.N,GND*%
X119400000Y-76600000D03*
X144700000Y-89700000D03*
X159380000Y-90360000D03*
X159380000Y-109760000D03*
X158900000Y-69000000D03*
X163400000Y-96310000D03*
X176760000Y-95517500D03*
%TO.N,5V*%
X165200000Y-66400000D03*
X164300000Y-91300000D03*
X160100000Y-86700000D03*
X167700000Y-75100000D03*
X176700000Y-99700000D03*
%TO.N,Net-(U2-PD5)*%
X119100000Y-105100000D03*
%TO.N,Net-(U2-PD6)*%
X130600000Y-104900000D03*
%TO.N,Net-(U2-PD7)*%
X142280000Y-104700000D03*
D36*
%TO.N,Net-(F1-Pad1)*%
X122200000Y-63000000D03*
%TD*%
D37*
%TO.N,Net-(U2-XTAL1{slash}PB6)*%
X163130000Y-97730000D02*
X163800000Y-98400000D01*
X159380000Y-93355000D02*
X159380000Y-97730000D01*
X159380000Y-97730000D02*
X163130000Y-97730000D01*
X163800000Y-98400000D02*
X166080000Y-98400000D01*
%TO.N,GND*%
X176780000Y-96782500D02*
X176780000Y-95537500D01*
X158880000Y-67400000D02*
X158880000Y-68980000D01*
X163380000Y-94885000D02*
X163380000Y-96290000D01*
X143425000Y-89700000D02*
X144700000Y-89700000D01*
X159380000Y-91805000D02*
X159380000Y-90360000D01*
X163380000Y-96290000D02*
X163400000Y-96310000D01*
X118000000Y-76600000D02*
X119400000Y-76600000D01*
X159380000Y-108515000D02*
X159380000Y-109760000D01*
X158880000Y-68980000D02*
X158900000Y-69000000D01*
X176780000Y-95537500D02*
X176760000Y-95517500D01*
%TO.N,Net-(U2-XTAL2{slash}PB7)*%
X162760000Y-100940000D02*
X166080000Y-100940000D01*
X159380000Y-102610000D02*
X161090000Y-102610000D01*
X159380000Y-106965000D02*
X159380000Y-102610000D01*
X161090000Y-102610000D02*
X162760000Y-100940000D01*
D38*
%TO.N,5V*%
X148520000Y-122080000D02*
X153800000Y-116800000D01*
D37*
X166200000Y-67400000D02*
X165200000Y-66400000D01*
X163400000Y-91300000D02*
X164300000Y-91300000D01*
D38*
X153800000Y-116800000D02*
X153800000Y-97500000D01*
D37*
X176700000Y-99700000D02*
X176700000Y-98412500D01*
X133700000Y-89700000D02*
X132900000Y-88900000D01*
D38*
X129100000Y-93900000D02*
X127500000Y-92300000D01*
D37*
X176700000Y-98412500D02*
X176780000Y-98332500D01*
X160100000Y-86700000D02*
X160100000Y-88000000D01*
D38*
X127500000Y-92300000D02*
X127500000Y-87100000D01*
D37*
X163400000Y-91300000D02*
X163400000Y-93315000D01*
X163380000Y-93335000D02*
X166065000Y-93335000D01*
X166065000Y-93335000D02*
X166080000Y-93320000D01*
X137912500Y-89700000D02*
X133700000Y-89700000D01*
X132900000Y-88900000D02*
X132900000Y-88200000D01*
D38*
X150200000Y-93900000D02*
X129100000Y-93900000D01*
D37*
X176780000Y-98332500D02*
X173767500Y-98332500D01*
D39*
X167700000Y-73800000D02*
X167700000Y-75100000D01*
D38*
X148520000Y-126100000D02*
X148520000Y-122080000D01*
D37*
X166500000Y-67400000D02*
X166200000Y-67400000D01*
X160100000Y-88000000D02*
X160300000Y-88200000D01*
X160300000Y-88200000D02*
X163400000Y-91300000D01*
X173767500Y-98332500D02*
X173700000Y-98400000D01*
X131800000Y-87100000D02*
X132900000Y-88200000D01*
D38*
X153800000Y-97500000D02*
X150200000Y-93900000D01*
D37*
X132900000Y-88200000D02*
X160300000Y-88200000D01*
X127500000Y-87100000D02*
X131800000Y-87100000D01*
X163400000Y-93315000D02*
X163380000Y-93335000D01*
D39*
%TO.N,MISO*%
X168500000Y-65500000D02*
X168500000Y-70500000D01*
X167860000Y-64860000D02*
X168500000Y-65500000D01*
X172420000Y-103480000D02*
X173700000Y-103480000D01*
X172400000Y-103500000D02*
X172420000Y-103480000D01*
X166500000Y-64860000D02*
X167860000Y-64860000D01*
X172100000Y-74100000D02*
X172100000Y-103200000D01*
X168500000Y-70500000D02*
X172100000Y-74100000D01*
X172100000Y-103200000D02*
X172400000Y-103500000D01*
%TO.N,SCK*%
X177400000Y-95167550D02*
X177555000Y-95322550D01*
X163960000Y-63140000D02*
X164600000Y-62500000D01*
X177000000Y-100940000D02*
X173700000Y-100940000D01*
X164600000Y-62500000D02*
X166440000Y-62500000D01*
X177400000Y-78700000D02*
X177400000Y-95167550D01*
X163960000Y-64860000D02*
X163960000Y-63140000D01*
X169100000Y-65160000D02*
X169100000Y-70400000D01*
X166440000Y-62500000D02*
X169100000Y-65160000D01*
X169100000Y-70400000D02*
X177400000Y-78700000D01*
X177555000Y-95322550D02*
X177555000Y-100385000D01*
X177555000Y-100385000D02*
X177000000Y-100940000D01*
%TO.N,MOSI*%
X172220000Y-106020000D02*
X173700000Y-106020000D01*
X163960000Y-67400000D02*
X171700000Y-75140000D01*
X171700000Y-105500000D02*
X172220000Y-106020000D01*
X171700000Y-75140000D02*
X171700000Y-105500000D01*
%TO.N,RESET*%
X166080000Y-73830000D02*
X166050000Y-73800000D01*
X162810000Y-72710000D02*
X166080000Y-75980000D01*
X161420000Y-65773654D02*
X162810000Y-67163654D01*
X166080000Y-75980000D02*
X166080000Y-73830000D01*
X162810000Y-67163654D02*
X162810000Y-72710000D01*
X166080000Y-75980000D02*
X166080000Y-78080000D01*
X161420000Y-64860000D02*
X161420000Y-65773654D01*
D37*
%TO.N,GATE1*%
X120745000Y-111075000D02*
X120720000Y-111100000D01*
X120745000Y-106400000D02*
X120745000Y-111075000D01*
%TO.N,GATE2*%
X132265000Y-111065000D02*
X132300000Y-111100000D01*
X132265000Y-106345000D02*
X132265000Y-111065000D01*
%TO.N,GATE3*%
X143905000Y-111095000D02*
X143900000Y-111100000D01*
X143905000Y-106200000D02*
X143905000Y-111095000D01*
%TO.N,Net-(U2-PD5)*%
X119095000Y-105105000D02*
X119100000Y-105100000D01*
X119095000Y-106400000D02*
X119095000Y-105105000D01*
%TO.N,Net-(U2-PD6)*%
X130615000Y-106345000D02*
X130615000Y-104915000D01*
X130615000Y-104915000D02*
X130600000Y-104900000D01*
%TO.N,Net-(U2-PD7)*%
X142255000Y-106200000D02*
X142255000Y-104725000D01*
X142255000Y-104725000D02*
X142280000Y-104700000D01*
%TO.N,Net-(D1-K)*%
X116350000Y-76600000D02*
X116350000Y-74562500D01*
X116350000Y-74562500D02*
X116412500Y-74500000D01*
%TO.N,Net-(D2-K)*%
X139487500Y-89700000D02*
X141775000Y-89700000D01*
D39*
%TO.N,RX*%
X164520000Y-80620000D02*
X166080000Y-80620000D01*
X161420000Y-77520000D02*
X164520000Y-80620000D01*
X161420000Y-67400000D02*
X161420000Y-77520000D01*
D37*
%TO.N,RearLightButton*%
X151060000Y-126100000D02*
X151060000Y-123140000D01*
X151060000Y-123140000D02*
X163100000Y-111100000D01*
X163100000Y-111100000D02*
X166080000Y-111100000D01*
%TO.N,IndicatorButton*%
X153600000Y-122000000D02*
X162200000Y-113400000D01*
X173700000Y-112900000D02*
X173700000Y-111100000D01*
X153600000Y-126100000D02*
X153600000Y-122000000D01*
X173200000Y-113400000D02*
X173700000Y-112900000D01*
X162200000Y-113400000D02*
X173200000Y-113400000D01*
%TO.N,+12V*%
X117987500Y-74500000D02*
X122200000Y-74500000D01*
%TO.N,BrakeButton*%
X175860000Y-108560000D02*
X173700000Y-108560000D01*
X163000000Y-114600000D02*
X175400000Y-114600000D01*
X176600000Y-109300000D02*
X175860000Y-108560000D01*
X156140000Y-121460000D02*
X163000000Y-114600000D01*
X175400000Y-114600000D02*
X176600000Y-113400000D01*
X176600000Y-113400000D02*
X176600000Y-109300000D01*
X156140000Y-126100000D02*
X156140000Y-121460000D01*
D38*
%TO.N,/12V_LOAD_1*%
X128120000Y-126100000D02*
X128120000Y-119820000D01*
X128120000Y-119820000D02*
X123260000Y-114960000D01*
X123300000Y-105825000D02*
X123300000Y-111060000D01*
X123300000Y-111060000D02*
X123260000Y-111100000D01*
X123260000Y-105790000D02*
X123300000Y-105750000D01*
X123260000Y-114960000D02*
X123260000Y-111100000D01*
%TO.N,/12V_LOAD_2*%
X134900000Y-111040000D02*
X134840000Y-111100000D01*
X130660000Y-126100000D02*
X130660000Y-118640000D01*
X134840000Y-105810000D02*
X134900000Y-105750000D01*
X134840000Y-114460000D02*
X134840000Y-111100000D01*
X134900000Y-105825000D02*
X134900000Y-111040000D01*
X130660000Y-118640000D02*
X134840000Y-114460000D01*
%TO.N,/12V_LOAD_3*%
X138700000Y-116200000D02*
X145600000Y-116200000D01*
X133200000Y-126100000D02*
X133200000Y-121700000D01*
X146440000Y-105790000D02*
X146480000Y-105750000D01*
X145600000Y-116200000D02*
X146960000Y-114840000D01*
X146440000Y-111100000D02*
X146440000Y-105865000D01*
X146960000Y-114840000D02*
X146960000Y-111100000D01*
X146440000Y-105865000D02*
X146480000Y-105825000D01*
X133200000Y-121700000D02*
X138700000Y-116200000D01*
D39*
%TO.N,TX*%
X158880000Y-64860000D02*
X160030000Y-66010000D01*
X160030000Y-79330000D02*
X163860000Y-83160000D01*
X163860000Y-83160000D02*
X166080000Y-83160000D01*
X160030000Y-66010000D02*
X160030000Y-79330000D01*
D40*
%TO.N,Net-(F1-Pad1)*%
X122200000Y-64737500D02*
X122200000Y-63000000D01*
%TD*%
%TA.AperFunction,Conductor*%
%TO.N,+12V*%
G36*
X117322586Y-80407484D02*
G01*
X118794052Y-80411852D01*
X118794052Y-80411851D01*
X118794065Y-80411852D01*
X118794067Y-80411851D01*
X119023061Y-80412530D01*
X119064220Y-80441745D01*
X119090982Y-80491169D01*
X119093177Y-80547330D01*
X119070352Y-80598691D01*
X119010326Y-80678178D01*
X118919418Y-80860748D01*
X118863602Y-81056916D01*
X118844785Y-81260000D01*
X118863602Y-81463083D01*
X118919418Y-81659251D01*
X119010324Y-81841818D01*
X119133236Y-82004580D01*
X119283958Y-82141981D01*
X119457361Y-82249347D01*
X119457363Y-82249348D01*
X119647544Y-82323024D01*
X119848024Y-82360500D01*
X120051974Y-82360500D01*
X120051976Y-82360500D01*
X120252456Y-82323024D01*
X120291989Y-82307709D01*
X121609396Y-82307709D01*
X121647677Y-82322539D01*
X121848072Y-82360000D01*
X122051928Y-82360000D01*
X122252317Y-82322540D01*
X122290602Y-82307708D01*
X121950001Y-81967107D01*
X121950000Y-81967107D01*
X121609396Y-82307709D01*
X120291989Y-82307709D01*
X120442637Y-82249348D01*
X120616041Y-82141981D01*
X120766764Y-82004579D01*
X120889673Y-81841821D01*
X120889673Y-81841819D01*
X120889675Y-81841818D01*
X120980580Y-81659254D01*
X120980579Y-81659254D01*
X120980582Y-81659250D01*
X121026228Y-81498821D01*
X121057810Y-81445080D01*
X121242892Y-81260001D01*
X122657107Y-81260001D01*
X122996960Y-81599854D01*
X122996961Y-81599854D01*
X123019682Y-81520000D01*
X126350000Y-81520000D01*
X127000000Y-81520000D01*
X127000000Y-80870000D01*
X128000000Y-80870000D01*
X128000000Y-81520000D01*
X128650000Y-81520000D01*
X128650000Y-81322176D01*
X128643597Y-81262624D01*
X128593352Y-81127910D01*
X128507188Y-81012811D01*
X128392089Y-80926647D01*
X128257375Y-80876402D01*
X128197824Y-80870000D01*
X128000000Y-80870000D01*
X127000000Y-80870000D01*
X126802176Y-80870000D01*
X126742624Y-80876402D01*
X126607910Y-80926647D01*
X126492811Y-81012811D01*
X126406647Y-81127910D01*
X126356402Y-81262624D01*
X126350000Y-81322176D01*
X126350000Y-81520000D01*
X123019682Y-81520000D01*
X123035903Y-81462990D01*
X123054712Y-81259999D01*
X123035903Y-81057009D01*
X122996961Y-80920144D01*
X122996960Y-80920144D01*
X122657107Y-81260000D01*
X122657107Y-81260001D01*
X121242892Y-81260001D01*
X121242893Y-81260000D01*
X121057810Y-81074917D01*
X121026227Y-81021176D01*
X120980582Y-80860750D01*
X120956325Y-80812035D01*
X120889675Y-80678181D01*
X120766763Y-80515419D01*
X120659225Y-80417385D01*
X121817930Y-80420823D01*
X121950000Y-80552893D01*
X121950001Y-80552893D01*
X122081287Y-80421605D01*
X134800000Y-80459346D01*
X134800000Y-83303920D01*
X134817009Y-83330167D01*
X134826251Y-83375117D01*
X134868855Y-85931340D01*
X134856098Y-85988223D01*
X134818757Y-86032990D01*
X134765086Y-86055747D01*
X134706947Y-86051464D01*
X134657191Y-86021087D01*
X134473439Y-85837335D01*
X134447042Y-85812756D01*
X134447029Y-85812745D01*
X134433676Y-85801173D01*
X134433659Y-85801158D01*
X134405577Y-85778528D01*
X134405560Y-85778515D01*
X134191311Y-85618129D01*
X134161650Y-85597536D01*
X134146776Y-85587978D01*
X134115761Y-85569577D01*
X134115759Y-85569576D01*
X133880884Y-85441324D01*
X133848591Y-85425159D01*
X133832521Y-85417820D01*
X133799198Y-85404017D01*
X133724826Y-85376277D01*
X133548417Y-85310480D01*
X133548411Y-85310478D01*
X133548395Y-85310472D01*
X133514171Y-85299082D01*
X133497208Y-85294102D01*
X133462246Y-85285178D01*
X133200747Y-85228294D01*
X133200744Y-85228293D01*
X133200742Y-85228293D01*
X133195939Y-85227426D01*
X133165261Y-85221890D01*
X133147748Y-85219371D01*
X133122607Y-85216668D01*
X133111850Y-85215512D01*
X133111841Y-85215511D01*
X133111838Y-85215511D01*
X132840468Y-85196103D01*
X132822497Y-85195139D01*
X132813574Y-85194820D01*
X132795591Y-85194500D01*
X132795572Y-85194500D01*
X128669564Y-85194500D01*
X128609225Y-85178829D01*
X128564137Y-85135778D01*
X128545696Y-85076227D01*
X128558563Y-85015229D01*
X128577406Y-84977386D01*
X128635756Y-84772310D01*
X128635755Y-84772310D01*
X128655429Y-84560000D01*
X128635756Y-84347690D01*
X128577405Y-84142611D01*
X128577014Y-84141827D01*
X128482368Y-83951747D01*
X128353873Y-83781594D01*
X128196301Y-83637947D01*
X128015017Y-83525701D01*
X127816198Y-83448679D01*
X127640782Y-83415888D01*
X127585831Y-83390606D01*
X127549378Y-83342333D01*
X127540099Y-83282559D01*
X127560203Y-83225507D01*
X127604906Y-83184754D01*
X127663570Y-83170000D01*
X128197824Y-83170000D01*
X128257375Y-83163597D01*
X128392089Y-83113352D01*
X128507188Y-83027188D01*
X128593352Y-82912089D01*
X128643597Y-82777375D01*
X128650000Y-82717824D01*
X128650000Y-82520000D01*
X126350000Y-82520000D01*
X126350000Y-82717824D01*
X126356402Y-82777375D01*
X126406647Y-82912089D01*
X126492811Y-83027188D01*
X126607910Y-83113352D01*
X126742624Y-83163597D01*
X126802176Y-83170000D01*
X127336430Y-83170000D01*
X127395094Y-83184754D01*
X127439797Y-83225507D01*
X127459901Y-83282559D01*
X127450622Y-83342333D01*
X127414169Y-83390606D01*
X127359217Y-83415888D01*
X127228258Y-83440368D01*
X127183801Y-83448679D01*
X126984982Y-83525701D01*
X126803698Y-83637947D01*
X126646126Y-83781594D01*
X126517631Y-83951747D01*
X126422595Y-84142609D01*
X126364243Y-84347689D01*
X126344571Y-84560000D01*
X126364243Y-84772310D01*
X126422593Y-84977386D01*
X126441437Y-85015229D01*
X126454304Y-85076227D01*
X126435863Y-85135778D01*
X126390775Y-85178829D01*
X126330436Y-85194500D01*
X122904409Y-85194500D01*
X122886428Y-85194820D01*
X122882972Y-85194943D01*
X122877537Y-85195138D01*
X122877499Y-85195140D01*
X122877500Y-85195140D01*
X122859532Y-85196103D01*
X122588133Y-85215512D01*
X122552260Y-85219369D01*
X122534776Y-85221884D01*
X122499249Y-85228293D01*
X122237740Y-85285181D01*
X122202789Y-85294102D01*
X122185836Y-85299079D01*
X122151582Y-85310480D01*
X121900811Y-85404013D01*
X121867461Y-85417827D01*
X121851410Y-85425159D01*
X121851382Y-85425172D01*
X121835237Y-85433253D01*
X121819117Y-85441323D01*
X121584237Y-85569576D01*
X121553200Y-85587992D01*
X121538358Y-85597529D01*
X121508692Y-85618126D01*
X121294419Y-85778529D01*
X121266329Y-85801167D01*
X121252965Y-85812747D01*
X121226565Y-85837329D01*
X121037329Y-86026565D01*
X121012747Y-86052965D01*
X121001167Y-86066329D01*
X120978529Y-86094419D01*
X120818126Y-86308692D01*
X120797529Y-86338358D01*
X120787992Y-86353200D01*
X120769576Y-86384237D01*
X120641323Y-86619117D01*
X120633253Y-86635237D01*
X120625172Y-86651382D01*
X120625166Y-86651393D01*
X120625166Y-86651395D01*
X120617827Y-86667461D01*
X120604013Y-86700811D01*
X120510480Y-86951582D01*
X120499079Y-86985836D01*
X120494102Y-87002789D01*
X120485181Y-87037740D01*
X120428291Y-87299259D01*
X120427008Y-87306370D01*
X120405971Y-87356294D01*
X120365658Y-87392484D01*
X120313762Y-87408033D01*
X120260190Y-87399972D01*
X120252456Y-87396976D01*
X120051976Y-87359500D01*
X119848024Y-87359500D01*
X119747784Y-87378237D01*
X119647542Y-87396976D01*
X119457361Y-87470652D01*
X119283958Y-87578018D01*
X119133236Y-87715419D01*
X119010324Y-87878181D01*
X118919418Y-88060748D01*
X118863602Y-88256916D01*
X118844785Y-88459999D01*
X118863602Y-88663083D01*
X118919418Y-88859251D01*
X119010324Y-89041818D01*
X119133236Y-89204580D01*
X119283958Y-89341981D01*
X119422342Y-89427664D01*
X119457363Y-89449348D01*
X119647544Y-89523024D01*
X119848024Y-89560500D01*
X120051974Y-89560500D01*
X120051976Y-89560500D01*
X120252456Y-89523024D01*
X120352539Y-89484251D01*
X120416865Y-89477427D01*
X120475877Y-89503929D01*
X120513512Y-89556545D01*
X120604017Y-89799198D01*
X120617820Y-89832521D01*
X120625159Y-89848591D01*
X120641324Y-89880884D01*
X120769577Y-90115761D01*
X120787978Y-90146776D01*
X120797536Y-90161650D01*
X120818129Y-90191311D01*
X120978515Y-90405560D01*
X120978528Y-90405577D01*
X121001158Y-90433659D01*
X121001168Y-90433670D01*
X121012754Y-90447040D01*
X121033716Y-90469553D01*
X121037335Y-90473439D01*
X121226559Y-90662663D01*
X121252956Y-90687242D01*
X121266339Y-90698840D01*
X121294421Y-90721470D01*
X121294429Y-90721476D01*
X121294439Y-90721484D01*
X121508683Y-90881866D01*
X121508686Y-90881868D01*
X121538331Y-90902451D01*
X121544405Y-90906353D01*
X121553216Y-90912016D01*
X121584244Y-90930425D01*
X121584250Y-90930428D01*
X121584258Y-90930433D01*
X121676865Y-90980999D01*
X121819123Y-91058678D01*
X121835249Y-91066750D01*
X121851375Y-91074824D01*
X121867467Y-91082173D01*
X121900807Y-91095984D01*
X121900816Y-91095987D01*
X121900820Y-91095989D01*
X122151574Y-91189516D01*
X122151594Y-91189522D01*
X122151595Y-91189523D01*
X122185819Y-91200913D01*
X122185827Y-91200915D01*
X122185829Y-91200916D01*
X122202805Y-91205900D01*
X122226821Y-91212029D01*
X122237761Y-91214822D01*
X122499241Y-91271703D01*
X122499245Y-91271703D01*
X122499251Y-91271705D01*
X122534758Y-91278111D01*
X122552270Y-91280629D01*
X122552291Y-91280632D01*
X122588137Y-91284486D01*
X122588151Y-91284487D01*
X122859519Y-91303896D01*
X122877536Y-91304862D01*
X122886382Y-91305178D01*
X122886414Y-91305178D01*
X122886426Y-91305179D01*
X122904409Y-91305500D01*
X122904428Y-91305500D01*
X126375500Y-91305500D01*
X126437500Y-91322113D01*
X126482887Y-91367500D01*
X126499500Y-91429500D01*
X126499500Y-92285721D01*
X126499460Y-92288863D01*
X126497242Y-92376362D01*
X126507648Y-92434420D01*
X126508957Y-92443749D01*
X126514926Y-92502438D01*
X126524033Y-92531467D01*
X126527772Y-92546702D01*
X126533141Y-92576652D01*
X126555020Y-92631425D01*
X126558180Y-92640300D01*
X126575841Y-92696588D01*
X126590607Y-92723191D01*
X126597337Y-92737364D01*
X126608622Y-92765617D01*
X126641080Y-92814867D01*
X126645961Y-92822923D01*
X126674590Y-92874501D01*
X126694404Y-92897581D01*
X126703856Y-92910116D01*
X126720599Y-92935520D01*
X126762300Y-92977221D01*
X126768705Y-92984132D01*
X126807130Y-93028891D01*
X126807131Y-93028892D01*
X126807134Y-93028895D01*
X126831198Y-93047522D01*
X126842968Y-93057889D01*
X128382449Y-94597370D01*
X128384642Y-94599619D01*
X128444941Y-94663053D01*
X128493358Y-94696752D01*
X128500865Y-94702413D01*
X128546593Y-94739698D01*
X128573556Y-94753782D01*
X128586980Y-94761915D01*
X128611951Y-94779295D01*
X128666163Y-94802559D01*
X128674663Y-94806595D01*
X128708286Y-94824159D01*
X128726951Y-94833909D01*
X128756196Y-94842277D01*
X128770986Y-94847543D01*
X128778464Y-94850752D01*
X128798942Y-94859540D01*
X128856737Y-94871416D01*
X128865854Y-94873654D01*
X128922582Y-94889887D01*
X128952916Y-94892196D01*
X128968453Y-94894374D01*
X128998259Y-94900500D01*
X129057243Y-94900500D01*
X129066657Y-94900858D01*
X129125477Y-94905337D01*
X129155652Y-94901493D01*
X129171318Y-94900500D01*
X148435042Y-94900500D01*
X148496896Y-94917029D01*
X148542261Y-94962209D01*
X148559041Y-95023996D01*
X148591842Y-103093331D01*
X148591562Y-103102184D01*
X148573230Y-103373829D01*
X148570779Y-103391364D01*
X148514877Y-103653267D01*
X148509955Y-103670274D01*
X148417320Y-103921556D01*
X148410026Y-103937688D01*
X148282549Y-104173218D01*
X148273031Y-104188147D01*
X148113315Y-104403114D01*
X148101769Y-104416535D01*
X147913063Y-104606568D01*
X147899723Y-104618209D01*
X147685873Y-104779431D01*
X147671015Y-104789051D01*
X147554336Y-104853262D01*
X147489288Y-104868514D01*
X147425768Y-104847800D01*
X146760482Y-104404276D01*
X146654715Y-104350496D01*
X146539327Y-104322845D01*
X146420673Y-104322845D01*
X146305284Y-104350496D01*
X146199517Y-104404276D01*
X145449516Y-104904276D01*
X145355605Y-104985134D01*
X145304599Y-105057457D01*
X145260498Y-105095992D01*
X145203633Y-105109988D01*
X144316561Y-105112597D01*
X143262809Y-105115696D01*
X143206393Y-105102306D01*
X143162233Y-105064729D01*
X143139985Y-105011184D01*
X143144512Y-104953383D01*
X143165674Y-104888256D01*
X143185460Y-104700000D01*
X143165674Y-104511744D01*
X143118898Y-104367783D01*
X143107179Y-104331715D01*
X143012533Y-104167783D01*
X142885870Y-104027110D01*
X142732730Y-103915848D01*
X142559802Y-103838855D01*
X142374648Y-103799500D01*
X142374646Y-103799500D01*
X142185354Y-103799500D01*
X142185352Y-103799500D01*
X142000197Y-103838855D01*
X141827269Y-103915848D01*
X141674129Y-104027110D01*
X141547466Y-104167783D01*
X141452820Y-104331715D01*
X141394326Y-104511742D01*
X141374540Y-104699999D01*
X141394326Y-104888257D01*
X141417362Y-104959153D01*
X141421919Y-105016779D01*
X141399856Y-105070209D01*
X141355969Y-105107831D01*
X141299796Y-105121470D01*
X139912976Y-105125549D01*
X136195778Y-105136482D01*
X136138508Y-105122654D01*
X136094085Y-105083951D01*
X136024393Y-104985134D01*
X135939156Y-104911744D01*
X135930483Y-104904276D01*
X135180482Y-104404276D01*
X135074715Y-104350496D01*
X134959327Y-104322845D01*
X134840673Y-104322845D01*
X134725284Y-104350496D01*
X134619517Y-104404276D01*
X133869516Y-104904276D01*
X133775605Y-104985134D01*
X133700529Y-105091586D01*
X133656428Y-105130121D01*
X133599561Y-105144118D01*
X131617270Y-105149948D01*
X131551401Y-105131236D01*
X131505508Y-105080416D01*
X131493584Y-105012990D01*
X131505460Y-104900000D01*
X131485674Y-104711744D01*
X131427179Y-104531716D01*
X131427179Y-104531715D01*
X131332533Y-104367783D01*
X131205870Y-104227110D01*
X131052730Y-104115848D01*
X130879802Y-104038855D01*
X130694648Y-103999500D01*
X130694646Y-103999500D01*
X130505354Y-103999500D01*
X130505352Y-103999500D01*
X130320197Y-104038855D01*
X130147269Y-104115848D01*
X129994129Y-104227110D01*
X129867466Y-104367783D01*
X129772820Y-104531715D01*
X129714326Y-104711742D01*
X129694540Y-104900000D01*
X129707044Y-105018969D01*
X129695227Y-105086179D01*
X129649639Y-105136959D01*
X129584090Y-105155928D01*
X124613709Y-105170547D01*
X124565197Y-105160818D01*
X124524348Y-105132891D01*
X124497674Y-105091219D01*
X124495816Y-105086406D01*
X124491591Y-105080416D01*
X124446438Y-105016392D01*
X124424393Y-104985134D01*
X124339156Y-104911744D01*
X124330483Y-104904276D01*
X123580482Y-104404276D01*
X123474715Y-104350496D01*
X123359327Y-104322845D01*
X123240673Y-104322845D01*
X123125284Y-104350496D01*
X123019517Y-104404276D01*
X122269516Y-104904276D01*
X122175608Y-104985132D01*
X122104183Y-105086407D01*
X122099336Y-105098958D01*
X122072828Y-105140455D01*
X122032259Y-105168364D01*
X121984029Y-105178281D01*
X121264089Y-105180399D01*
X120126277Y-105183745D01*
X120067912Y-105169345D01*
X120023179Y-105129187D01*
X120002591Y-105072707D01*
X119985674Y-104911744D01*
X119927179Y-104731716D01*
X119927179Y-104731715D01*
X119832533Y-104567783D01*
X119705870Y-104427110D01*
X119552730Y-104315848D01*
X119379802Y-104238855D01*
X119194648Y-104199500D01*
X119194646Y-104199500D01*
X119005354Y-104199500D01*
X119005352Y-104199500D01*
X118820197Y-104238855D01*
X118647269Y-104315848D01*
X118494129Y-104427110D01*
X118367466Y-104567783D01*
X118272820Y-104731715D01*
X118214326Y-104911742D01*
X118196774Y-105078745D01*
X118176322Y-105135022D01*
X118131882Y-105175154D01*
X118073818Y-105189782D01*
X117114928Y-105192602D01*
X116626582Y-105194038D01*
X116617677Y-105193745D01*
X116344367Y-105174868D01*
X116326727Y-105172367D01*
X116063310Y-105115461D01*
X116046212Y-105110458D01*
X115793672Y-105016392D01*
X115777466Y-105008990D01*
X115541010Y-104879703D01*
X115526033Y-104870055D01*
X115310550Y-104708221D01*
X115297110Y-104696526D01*
X115107037Y-104505477D01*
X115095415Y-104491983D01*
X114934674Y-104275656D01*
X114925112Y-104260642D01*
X114797040Y-104023528D01*
X114789721Y-104007286D01*
X114696950Y-103754267D01*
X114692034Y-103737143D01*
X114636475Y-103473420D01*
X114634068Y-103455792D01*
X114616590Y-103182364D01*
X114616342Y-103173504D01*
X114619010Y-102842639D01*
X114783917Y-82394171D01*
X114784302Y-82385366D01*
X114805766Y-82115040D01*
X114808408Y-82097605D01*
X114867031Y-81837368D01*
X114872119Y-81820487D01*
X114933486Y-81659364D01*
X114967066Y-81571196D01*
X114974497Y-81555209D01*
X115103847Y-81321909D01*
X115113463Y-81307147D01*
X115274611Y-81094541D01*
X115286217Y-81081302D01*
X115475892Y-80893707D01*
X115489273Y-80882237D01*
X115584046Y-80812035D01*
X115703636Y-80723450D01*
X115718490Y-80714004D01*
X115953228Y-80587223D01*
X115969286Y-80579975D01*
X116219606Y-80487784D01*
X116236535Y-80482884D01*
X116497417Y-80427133D01*
X116514859Y-80424686D01*
X116678932Y-80413478D01*
X116785430Y-80406204D01*
X116794243Y-80405917D01*
X117322586Y-80407484D01*
G37*
%TD.AperFunction*%
%TD*%
%TA.AperFunction,Conductor*%
%TO.N,+12V*%
G36*
X132721725Y-66385767D02*
G01*
X132730481Y-66386140D01*
X132999461Y-66407164D01*
X133016796Y-66409762D01*
X133275824Y-66467578D01*
X133292629Y-66472601D01*
X133540905Y-66566397D01*
X133556822Y-66573736D01*
X133789370Y-66701630D01*
X133804102Y-66711148D01*
X133846635Y-66743110D01*
X134016272Y-66870584D01*
X134029517Y-66882090D01*
X134217054Y-67069866D01*
X134228543Y-67083126D01*
X134387703Y-67295495D01*
X134397205Y-67310243D01*
X134524800Y-67542948D01*
X134532126Y-67558890D01*
X134625603Y-67807282D01*
X134630603Y-67824092D01*
X134688085Y-68083180D01*
X134690664Y-68100534D01*
X134711342Y-68369528D01*
X134711705Y-68378298D01*
X134771075Y-78411859D01*
X134783190Y-80459297D01*
X120800000Y-80417804D01*
X120800000Y-74731182D01*
X126099500Y-74731182D01*
X126138604Y-74990615D01*
X126215937Y-75241323D01*
X126329772Y-75477704D01*
X126465766Y-75677170D01*
X126477571Y-75694485D01*
X126656015Y-75886801D01*
X126656019Y-75886805D01*
X126861143Y-76050386D01*
X127088357Y-76181568D01*
X127332584Y-76277420D01*
X127588370Y-76335802D01*
X127644408Y-76340001D01*
X127784501Y-76350500D01*
X127784506Y-76350500D01*
X130415494Y-76350500D01*
X130415499Y-76350500D01*
X130538079Y-76341313D01*
X130611630Y-76335802D01*
X130867416Y-76277420D01*
X131111643Y-76181568D01*
X131338857Y-76050386D01*
X131543981Y-75886805D01*
X131643273Y-75779792D01*
X131722428Y-75694485D01*
X131722429Y-75694482D01*
X131722433Y-75694479D01*
X131870228Y-75477704D01*
X131984063Y-75241323D01*
X132061396Y-74990615D01*
X132100500Y-74731182D01*
X132100500Y-74468818D01*
X132061396Y-74209385D01*
X131984063Y-73958677D01*
X131870228Y-73722296D01*
X131722433Y-73505521D01*
X131722432Y-73505520D01*
X131722428Y-73505514D01*
X131543984Y-73313198D01*
X131543983Y-73313197D01*
X131543981Y-73313195D01*
X131338857Y-73149614D01*
X131338856Y-73149613D01*
X131111641Y-73018431D01*
X130867418Y-72922580D01*
X130611627Y-72864197D01*
X130415499Y-72849500D01*
X130415494Y-72849500D01*
X127784506Y-72849500D01*
X127784501Y-72849500D01*
X127588372Y-72864197D01*
X127332581Y-72922580D01*
X127088358Y-73018431D01*
X126861143Y-73149613D01*
X126656015Y-73313198D01*
X126477571Y-73505514D01*
X126377070Y-73652922D01*
X126329772Y-73722296D01*
X126215937Y-73958677D01*
X126138604Y-74209385D01*
X126099500Y-74468818D01*
X126099500Y-74731182D01*
X120800000Y-74731182D01*
X120800000Y-72788860D01*
X122774500Y-72788860D01*
X122789548Y-72980071D01*
X122849277Y-73228860D01*
X122911022Y-73377924D01*
X122947191Y-73465243D01*
X123080877Y-73683399D01*
X123247044Y-73877956D01*
X123441601Y-74044123D01*
X123659757Y-74177809D01*
X123834394Y-74250146D01*
X123896139Y-74275722D01*
X123974739Y-74294592D01*
X124144930Y-74335452D01*
X124400000Y-74355526D01*
X124655070Y-74335452D01*
X124903860Y-74275722D01*
X125140243Y-74177809D01*
X125358399Y-74044123D01*
X125552956Y-73877956D01*
X125719123Y-73683399D01*
X125852809Y-73465243D01*
X125950722Y-73228860D01*
X126010452Y-72980070D01*
X126025500Y-72788863D01*
X126025500Y-70411137D01*
X126010452Y-70219930D01*
X125950722Y-69971140D01*
X125852809Y-69734757D01*
X125719123Y-69516601D01*
X125552956Y-69322044D01*
X125358399Y-69155877D01*
X125140243Y-69022191D01*
X125052924Y-68986022D01*
X124903860Y-68924277D01*
X124655071Y-68864548D01*
X124400000Y-68844474D01*
X124144928Y-68864548D01*
X123896139Y-68924277D01*
X123659755Y-69022192D01*
X123441602Y-69155876D01*
X123247044Y-69322044D01*
X123080876Y-69516602D01*
X122947192Y-69734755D01*
X122849277Y-69971139D01*
X122789548Y-70219928D01*
X122774500Y-70411140D01*
X122774500Y-72788860D01*
X120800000Y-72788860D01*
X120800000Y-68600000D01*
X126344474Y-68600000D01*
X126364548Y-68855071D01*
X126424277Y-69103860D01*
X126486022Y-69252924D01*
X126522191Y-69340243D01*
X126655877Y-69558399D01*
X126822044Y-69752956D01*
X127016601Y-69919123D01*
X127234757Y-70052809D01*
X127409394Y-70125146D01*
X127471139Y-70150722D01*
X127549739Y-70169592D01*
X127719930Y-70210452D01*
X127911137Y-70225500D01*
X130288860Y-70225500D01*
X130288863Y-70225500D01*
X130480070Y-70210452D01*
X130728860Y-70150722D01*
X130965243Y-70052809D01*
X131183399Y-69919123D01*
X131377956Y-69752956D01*
X131544123Y-69558399D01*
X131677809Y-69340243D01*
X131775722Y-69103860D01*
X131835452Y-68855070D01*
X131855526Y-68600000D01*
X131835452Y-68344930D01*
X131775722Y-68096140D01*
X131677809Y-67859757D01*
X131544123Y-67641601D01*
X131377956Y-67447044D01*
X131183399Y-67280877D01*
X130965243Y-67147191D01*
X130877924Y-67111022D01*
X130728860Y-67049277D01*
X130480071Y-66989548D01*
X130432268Y-66985786D01*
X130288863Y-66974500D01*
X127911137Y-66974500D01*
X127796412Y-66983528D01*
X127719928Y-66989548D01*
X127471139Y-67049277D01*
X127234755Y-67147192D01*
X127016602Y-67280876D01*
X126822044Y-67447044D01*
X126655876Y-67641602D01*
X126522192Y-67859755D01*
X126424277Y-68096139D01*
X126364548Y-68344928D01*
X126344474Y-68600000D01*
X120800000Y-68600000D01*
X120800000Y-68318887D01*
X120800319Y-68310001D01*
X120816616Y-68083180D01*
X120819906Y-68037394D01*
X120822444Y-68019819D01*
X120879850Y-67757169D01*
X120884879Y-67740126D01*
X120958790Y-67542948D01*
X120979245Y-67488376D01*
X120986652Y-67472240D01*
X121116045Y-67236559D01*
X121125677Y-67221657D01*
X121287439Y-67006889D01*
X121299115Y-66993505D01*
X121303101Y-66989548D01*
X121489901Y-66804086D01*
X121503367Y-66792509D01*
X121624134Y-66702903D01*
X121671919Y-66681265D01*
X121724373Y-66681320D01*
X121914572Y-66722696D01*
X122200000Y-66743110D01*
X122485428Y-66722696D01*
X122765046Y-66661869D01*
X123033161Y-66561867D01*
X123284315Y-66424726D01*
X123284314Y-66424726D01*
X123284317Y-66424725D01*
X123336358Y-66385767D01*
X123392262Y-66343917D01*
X123427833Y-66325392D01*
X123467452Y-66319190D01*
X132721725Y-66385767D01*
G37*
%TD.AperFunction*%
%TD*%
%TA.AperFunction,Conductor*%
%TO.N,5V*%
G36*
X127348512Y-85702111D02*
G01*
X127371578Y-85706422D01*
X127393390Y-85710500D01*
X127606609Y-85710500D01*
X127606610Y-85710500D01*
X127628421Y-85706422D01*
X127651488Y-85702111D01*
X127674272Y-85700000D01*
X132795572Y-85700000D01*
X132804418Y-85700316D01*
X133075790Y-85719724D01*
X133093291Y-85722241D01*
X133354803Y-85779129D01*
X133371762Y-85784108D01*
X133622524Y-85877638D01*
X133638616Y-85884987D01*
X133873501Y-86013244D01*
X133888375Y-86022802D01*
X134102624Y-86183188D01*
X134115994Y-86194774D01*
X134305225Y-86384005D01*
X134316811Y-86397375D01*
X134477193Y-86611619D01*
X134486758Y-86626503D01*
X134615011Y-86861382D01*
X134622361Y-86877475D01*
X134715888Y-87128229D01*
X134720872Y-87145205D01*
X134777757Y-87406702D01*
X134780275Y-87424214D01*
X134799684Y-87695582D01*
X134800000Y-87704428D01*
X134800000Y-88795572D01*
X134799684Y-88804418D01*
X134780275Y-89075785D01*
X134777757Y-89093297D01*
X134720872Y-89354794D01*
X134715888Y-89371770D01*
X134622361Y-89622524D01*
X134615011Y-89638617D01*
X134486758Y-89873496D01*
X134477193Y-89888380D01*
X134316811Y-90102624D01*
X134305225Y-90115994D01*
X134115994Y-90305225D01*
X134102624Y-90316811D01*
X133888380Y-90477193D01*
X133873496Y-90486758D01*
X133638617Y-90615011D01*
X133622524Y-90622361D01*
X133371770Y-90715888D01*
X133354794Y-90720872D01*
X133093297Y-90777757D01*
X133075785Y-90780275D01*
X132804418Y-90799684D01*
X132795572Y-90800000D01*
X122904428Y-90800000D01*
X122895582Y-90799684D01*
X122624214Y-90780275D01*
X122606702Y-90777757D01*
X122345205Y-90720872D01*
X122328229Y-90715888D01*
X122077475Y-90622361D01*
X122061382Y-90615011D01*
X121826503Y-90486758D01*
X121811619Y-90477193D01*
X121597375Y-90316811D01*
X121584005Y-90305225D01*
X121394774Y-90115994D01*
X121383188Y-90102624D01*
X121222802Y-89888375D01*
X121213244Y-89873501D01*
X121084987Y-89638616D01*
X121077638Y-89622524D01*
X120984108Y-89371762D01*
X120979129Y-89354803D01*
X120922241Y-89093291D01*
X120919724Y-89075786D01*
X120919724Y-89075785D01*
X120916242Y-89027102D01*
X120928924Y-88962992D01*
X120980582Y-88859250D01*
X121036397Y-88663083D01*
X121055215Y-88460000D01*
X121036397Y-88256917D01*
X120980582Y-88060750D01*
X120912999Y-87925025D01*
X120900000Y-87869755D01*
X120900000Y-87704428D01*
X120900316Y-87695582D01*
X120919724Y-87424214D01*
X120922240Y-87406710D01*
X120979130Y-87145192D01*
X120984107Y-87128241D01*
X121077640Y-86877470D01*
X121084985Y-86861388D01*
X121213248Y-86626491D01*
X121222798Y-86611630D01*
X121383195Y-86397366D01*
X121394767Y-86384012D01*
X121584012Y-86194767D01*
X121597366Y-86183195D01*
X121811630Y-86022798D01*
X121826491Y-86013248D01*
X122061388Y-85884985D01*
X122077470Y-85877640D01*
X122328241Y-85784107D01*
X122345192Y-85779130D01*
X122606710Y-85722240D01*
X122624207Y-85719724D01*
X122895581Y-85700316D01*
X122904428Y-85700000D01*
X127325728Y-85700000D01*
X127348512Y-85702111D01*
G37*
%TD.AperFunction*%
%TD*%
M02*
